<?xml version="1.0" standalone="no"?>
<!DOCTYPE svg PUBLIC "-//W3C//DTD SVG 1.1//EN" "http://www.w3.org/Graphics/SVG/1.1/DTD/svg11.dtd" >
<svg>
<metadata>
Created by FontForge 20090622 at Thu Apr 19 10:18:32 2018
 By deploy user
Copyright &#194;&#169; 2014 by Ren&#195;&#169; Bieder. All rights reserved.
</metadata>
<defs>
<font id="GalanoGrotesqueAlt-Bold" horiz-adv-x="610" >
  <font-face 
    font-family="GalanoGrotesqueAlt-Bold"
    font-weight="400"
    font-stretch="normal"
    units-per-em="1000"
    panose-1="0 0 8 0 0 0 0 0 0 0"
    ascent="757"
    descent="-243"
    x-height="502"
    cap-height="670"
    bbox="-173 -250 1236 987"
    underline-thickness="50"
    underline-position="-50"
    unicode-range="U+0020-U+FB02"
  />
<missing-glyph horiz-adv-x="772" 
d="M386 684q144 0 246 -100t102 -251q0 -149 -102 -248.5t-246 -99.5q-145 0 -247 99.5t-102 248.5q0 151 102 251t247 100zM386 629q-120 0 -204.5 -84t-84.5 -211q0 -126 84.5 -210t204.5 -84q119 0 203.5 84t84.5 210t-84 210.5t-204 84.5zM523 400q0 -41 -27.5 -68
t-74.5 -35v-29h-84v89h44q24 0 39 11.5t15 28.5q0 20 -13.5 32.5t-35.5 12.5q-24 0 -39 -13.5t-19 -37.5l-87 17q6 47 46 80t102 33q60 0 97 -34t37 -87zM377 236q22 0 36.5 -15t14.5 -34q0 -21 -14.5 -35.5t-36.5 -14.5t-36 14.5t-14 35.5q0 19 14.5 34t35.5 15z" />
    <glyph glyph-name="fi" unicode="fi" horiz-adv-x="656" 
d="M590 502v-502h-160v375h-184v-375h-159v375h-72v127h72v85q0 88 55.5 140.5t148.5 52.5q46 0 91 -17l-29 -126q-21 6 -40 6q-31 0 -49 -16.5t-18 -45.5v-79h344zM510 561q-41 0 -67 25t-26 64q0 38 26.5 64.5t66.5 26.5q39 0 65.5 -27t26.5 -64q0 -38 -26 -63.5
t-66 -25.5z" />
    <glyph glyph-name="fl" unicode="fl" horiz-adv-x="716" 
d="M311 643q-29 0 -47 -16.5t-18 -45.5v-79h138v-127h-138v-375h-159v375h-72v127h72v85q0 88 55.5 140.5t146.5 52.5q50 0 99 -20l-34 -124q-21 7 -43 7zM694 141l26 -125q-2 -1 -9.5 -4.5t-11.5 -4.5l-10 -5q-7 -3 -12 -4l-12 -4q-7 -3 -13.5 -4t-14.5 -2.5t-17 -2
t-18 -0.5q-78 0 -125.5 48t-47.5 126v611h159v-599q0 -20 13.5 -32t35.5 -12q19 0 57 14z" />
    <glyph glyph-name=".notdef" horiz-adv-x="772" 
d="M386 684q144 0 246 -100t102 -251q0 -149 -102 -248.5t-246 -99.5q-145 0 -247 99.5t-102 248.5q0 151 102 251t247 100zM386 629q-120 0 -204.5 -84t-84.5 -211q0 -126 84.5 -210t204.5 -84q119 0 203.5 84t84.5 210t-84 210.5t-204 84.5zM523 400q0 -41 -27.5 -68
t-74.5 -35v-29h-84v89h44q24 0 39 11.5t15 28.5q0 20 -13.5 32.5t-35.5 12.5q-24 0 -39 -13.5t-19 -37.5l-87 17q6 47 46 80t102 33q60 0 97 -34t37 -87zM377 236q22 0 36.5 -15t14.5 -34q0 -21 -14.5 -35.5t-36.5 -14.5t-36 14.5t-14 35.5q0 19 14.5 34t35.5 15z" />
    <glyph glyph-name=".null" horiz-adv-x="0" 
 />
    <glyph glyph-name="nonmarkingreturn" horiz-adv-x="333" 
 />
    <glyph glyph-name="space" unicode=" " horiz-adv-x="232" 
 />
    <glyph glyph-name="exclam" unicode="!" horiz-adv-x="297" 
d="M238 670v-31l-10 -410h-158l-10 410v31h178zM151 172q39 0 65 -26t26 -63q0 -38 -25.5 -63t-65.5 -25t-66 25t-26 63q0 37 26 63t66 26z" />
    <glyph glyph-name="quotedbl" unicode="&#x22;" horiz-adv-x="448" 
d="M47 355v315h151v-315h-151zM250 355v315h151v-315h-151z" />
    <glyph glyph-name="numbersign" unicode="#" horiz-adv-x="711" 
d="M560 386l-29 -117h102l-34 -123h-99l-36 -146h-132l36 146h-116l-36 -146h-132l36 146h-102l33 123h99l29 117h-101l32 123h99l40 161h132l-40 -161h117l40 161h132l-40 -161h102l-34 -123h-98zM427 386h-116l-29 -117h116z" />
    <glyph glyph-name="dollar" unicode="$" horiz-adv-x="607" 
d="M567 211q0 -83 -54 -134.5t-139 -64.5v-112h-133v115q-83 18 -139.5 70t-64.5 128l156 30q7 -56 41.5 -81t81.5 -25q41 0 66.5 18t25.5 46q0 42 -57 55l-127 28q-172 37 -172 178q0 80 51.5 131.5t137.5 65.5v111h133v-114q80 -18 130.5 -69t57.5 -126l-152 -26
q-4 55 -36 79t-74 24q-37 0 -60 -18t-23 -45q0 -41 49 -52l129 -29q172 -39 172 -183z" />
    <glyph glyph-name="percent" unicode="%" horiz-adv-x="865" 
d="M214 685q72 0 122.5 -46.5t50.5 -121.5q0 -74 -50.5 -120.5t-122.5 -46.5q-73 0 -123.5 46.5t-50.5 120.5q0 75 50.5 121.5t123.5 46.5zM141 0l484 670h94l-485 -670h-93zM214 586q-27 0 -46.5 -18.5t-19.5 -49.5q0 -32 19.5 -50.5t46.5 -18.5q26 0 45.5 19t19.5 50
t-19.5 49.5t-45.5 18.5zM652 320q72 0 122.5 -46.5t50.5 -121.5q0 -74 -50.5 -120.5t-122.5 -46.5q-73 0 -123.5 46.5t-50.5 120.5q0 75 50.5 121.5t123.5 46.5zM652 221q-27 0 -46.5 -18.5t-19.5 -49.5q0 -32 19.5 -50.5t46.5 -18.5q26 0 45.5 19t19.5 50t-19.5 49.5
t-45.5 18.5z" />
    <glyph glyph-name="ampersand" unicode="&#x26;" horiz-adv-x="698" 
d="M592 -28l-85 75q-84 -62 -200 -62q-119 0 -193 57.5t-74 152.5q0 109 113 171q-47 62 -47 132q0 83 62.5 135t159.5 52q98 0 154 -52t69 -138l-148 -26q-7 88 -75 88q-30 0 -49 -16.5t-19 -46.5q0 -27 16 -52t59 -63l142 -123q6 26 6 58v45h145v-45q0 -90 -33 -161
l90 -78zM313 114q47 0 87 26l-155 135q-48 -30 -48 -74q0 -39 31.5 -63t84.5 -24z" />
    <glyph glyph-name="quotesingle" unicode="'" horiz-adv-x="244" 
d="M47 355v315h151v-315h-151z" />
    <glyph glyph-name="parenleft" unicode="(" horiz-adv-x="380" 
d="M204 336q0 -94 33 -167t108 -152l-113 -99q-197 183 -197 418t197 418l110 -99q-73 -80 -105.5 -153t-32.5 -166z" />
    <glyph glyph-name="parenright" unicode=")" horiz-adv-x="380" 
d="M38 655l109 99q198 -182 198 -418t-198 -418l-112 99q74 80 107.5 153t33.5 166t-33 166t-105 153z" />
    <glyph glyph-name="asterisk" unicode="*" horiz-adv-x="447" 
d="M312 536l102 -59l-44 -77l-98 56v-106h-97v106l-98 -56l-44 77l102 59l-102 58l44 77l98 -56v105h97v-105l98 56l44 -77z" />
    <glyph glyph-name="plus" unicode="+" horiz-adv-x="573" 
d="M523 238h-171v-174h-131v174h-171v131h171v174h131v-174h171v-131z" />
    <glyph glyph-name="comma" unicode="," horiz-adv-x="264" 
d="M124 -132h-121l59 288h177v-4z" />
    <glyph glyph-name="hyphen" unicode="-" horiz-adv-x="451" 
d="M391 195h-331v135h331v-135z" />
    <glyph glyph-name="period" unicode="." horiz-adv-x="246" 
d="M123 175q39 0 65.5 -26.5t26.5 -63.5q0 -38 -26 -64t-66 -26q-39 0 -65 25.5t-26 64.5q0 37 26 63.5t65 26.5z" />
    <glyph glyph-name="slash" unicode="/" horiz-adv-x="435" 
d="M420 741l-288 -813h-117l288 813h117z" />
    <glyph glyph-name="zero" unicode="0" horiz-adv-x="664" 
d="M332 685q133 0 214.5 -96.5t81.5 -253.5t-81.5 -253.5t-214.5 -96.5t-214 96.5t-81 253.5t81 253.5t214 96.5zM332 130q59 0 94.5 55.5t35.5 149.5t-35.5 149.5t-94.5 55.5t-94 -55.5t-35 -149.5t35 -149.5t94 -55.5z" />
    <glyph glyph-name="one" unicode="1" horiz-adv-x="389" 
d="M322 670v-670h-160v480l-160 -82v148l216 124h104z" />
    <glyph glyph-name="two" unicode="2" horiz-adv-x="548" 
d="M515 144v-144h-486v108l231 217q25 23 34 32.5t26 29.5t23.5 39t6.5 41q0 36 -23 58t-60 22q-87 0 -96 -108l-153 29q5 100 73 158.5t175 58.5q108 0 175 -59t67 -158q0 -65 -32.5 -114.5t-108.5 -121.5l-96 -88h244z" />
    <glyph glyph-name="three" unicode="3" horiz-adv-x="577" 
d="M458 339q83 -42 83 -138q0 -95 -70 -155.5t-180 -60.5q-106 0 -177 57.5t-82 154.5l156 29q7 -50 33.5 -77t70.5 -27q42 0 69 22.5t27 58.5q0 34 -24 54t-67 20h-77v122h70q42 0 66 20t24 53q0 35 -24.5 56t-64.5 21q-42 0 -69 -27t-31 -81l-151 29q11 99 79 157t171 58
q107 0 173.5 -59t66.5 -152t-72 -135z" />
    <glyph glyph-name="four" unicode="4" horiz-adv-x="626" 
d="M602 123h-81v-123h-155v123h-348v148l299 399h204v-415h81v-132zM366 255v256l-181 -256h181z" />
    <glyph glyph-name="five" unicode="5" horiz-adv-x="576" 
d="M214 435h93q110 0 173 -58.5t63 -157.5q0 -104 -69.5 -169t-184.5 -65q-109 0 -182.5 60.5t-76.5 169.5l156 31q1 -61 31 -91t75 -30q43 0 69.5 25.5t26.5 66.5q0 38 -26.5 60.5t-69.5 22.5h-230l12 370h440v-143h-296z" />
    <glyph glyph-name="six" unicode="6" horiz-adv-x="611" 
d="M341 435q106 0 169.5 -61.5t63.5 -160.5q0 -100 -71 -164t-182 -64q-130 0 -207 89t-77 249q0 190 93 283q76 79 193 79q90 0 153 -42.5t84 -121.5l-155 -30q-19 57 -88 57q-47 0 -82 -38q-45 -49 -45 -136q58 61 151 61zM317 120q40 0 70 28t30 70t-30 69.5t-70 27.5
t-69 -28t-29 -71q0 -41 29 -68.5t69 -27.5z" />
    <glyph glyph-name="seven" unicode="7" horiz-adv-x="513" 
d="M493 670v-119l-219 -551h-177l218 526h-302v144h480z" />
    <glyph glyph-name="eight" unicode="8" horiz-adv-x="573" 
d="M428 343q58 -23 89.5 -64t31.5 -96q0 -87 -72.5 -142.5t-189.5 -55.5q-118 0 -191 55.5t-73 142.5q0 55 31.5 96.5t90.5 63.5q-99 46 -99 154q0 83 67.5 135.5t173.5 52.5t173.5 -52.5t67.5 -135.5q0 -108 -100 -154zM286 561q-37 0 -62 -20.5t-25 -57.5q0 -36 25 -56.5
t62 -20.5t63 21t26 57t-26 56.5t-63 20.5zM286 115q38 0 65.5 22t27.5 60q0 37 -27.5 58.5t-65.5 21.5q-39 0 -65 -21.5t-26 -60.5q0 -37 26 -58.5t65 -21.5z" />
    <glyph glyph-name="nine" unicode="9" horiz-adv-x="611" 
d="M290 685q130 0 207 -89t77 -249q0 -189 -93 -283q-77 -79 -193 -79q-90 0 -153 42.5t-84 121.5l155 30q17 -57 88 -57q47 0 82 38q43 48 45 136q-59 -61 -151 -61q-106 0 -169.5 61.5t-63.5 160.5q0 100 71 164t182 64zM294 355q40 0 69 28t29 71q0 41 -29.5 68.5
t-68.5 27.5q-40 0 -70.5 -28t-30.5 -70t30.5 -69.5t70.5 -27.5z" />
    <glyph glyph-name="colon" unicode=":" horiz-adv-x="246" 
d="M123 496q39 0 65.5 -26.5t26.5 -63.5q0 -38 -26 -64t-66 -26q-39 0 -65 26t-26 64q0 37 26 63.5t65 26.5zM123 175q39 0 65.5 -26.5t26.5 -63.5q0 -38 -26 -64t-66 -26q-39 0 -65 25.5t-26 64.5q0 37 26 63.5t65 26.5z" />
    <glyph glyph-name="semicolon" unicode=";" horiz-adv-x="280" 
d="M157 496q39 0 65 -26.5t26 -63.5q0 -38 -26 -64t-65 -26q-40 0 -66 25.5t-26 64.5q0 37 26 63.5t66 26.5zM124 -132h-121l59 288h177v-4z" />
    <glyph glyph-name="less" unicode="&#x3c;" horiz-adv-x="467" 
d="M429 108l-397 141v155l397 143v-154l-228 -65l228 -68v-152z" />
    <glyph glyph-name="equal" unicode="=" horiz-adv-x="573" 
d="M523 351h-473v127h473v-127zM523 153h-473v127h473v-127z" />
    <glyph glyph-name="greater" unicode="&#x3e;" horiz-adv-x="467" 
d="M268 328l-228 65v154l397 -143v-155l-397 -141v152z" />
    <glyph glyph-name="question" unicode="?" horiz-adv-x="543" 
d="M285 685q106 0 171 -60.5t65 -155.5q0 -73 -47.5 -122.5t-130.5 -65.5v-50h-152v161h80q41 0 66.5 20t25.5 52q0 36 -23 58.5t-60 22.5q-40 0 -65.5 -25.5t-32.5 -68.5l-155 31q11 87 80 145t178 58zM265 172q39 0 65 -26t26 -63q0 -38 -25.5 -63t-65.5 -25t-66 25
t-26 63q0 37 26 63t66 26z" />
    <glyph glyph-name="at" unicode="@" horiz-adv-x="936" 
d="M671 469v-278q0 -22 14.5 -34t35.5 -12q39 0 60 48.5t21 111.5q0 133 -94 216.5t-232 83.5q-147 0 -244.5 -94.5t-97.5 -238.5q0 -142 96.5 -235t239.5 -93q132 0 240 83l45 -71q-116 -94 -283 -94q-182 0 -303.5 115.5t-121.5 292.5q0 179 123 297t306 118
q173 0 293 -106.5t120 -269.5q0 -44 -10 -84.5t-31 -78t-60.5 -60t-92.5 -22.5q-89 0 -121 61q-48 -59 -136 -59q-85 0 -141.5 56t-56.5 149q0 94 57 150.5t141 56.5q74 0 122 -46v37h111zM464 170q39 0 67.5 28t28.5 74q0 45 -28.5 73t-67.5 28t-67 -27.5t-28 -73.5t28 -74
t67 -28z" />
    <glyph glyph-name="A" unicode="A" horiz-adv-x="729" 
d="M729 0h-176l-47 122h-282l-47 -122h-177l280 670h169zM451 264l-86 220l-85 -220h171z" />
    <glyph glyph-name="B" unicode="B" horiz-adv-x="662" 
d="M498 346v-4q52 -4 90.5 -44t38.5 -110q0 -86 -57 -137t-164 -51h-348v670h347q92 0 147.5 -50t55.5 -133q0 -63 -35 -100t-75 -41zM223 537v-144h144q37 0 59 20.5t22 54.5q0 31 -21.5 50t-53.5 19h-150zM223 133h154q39 0 60.5 20t21.5 55q0 33 -22 52.5t-57 19.5h-157
v-147z" />
    <glyph glyph-name="C" unicode="C" horiz-adv-x="764" 
d="M567 286l162 -35q-23 -124 -115 -195t-223 -71q-149 0 -252.5 101t-103.5 249q0 147 103.5 248.5t252.5 101.5q126 0 219.5 -70t117.5 -187l-162 -41q-15 73 -61.5 110t-113.5 37q-80 0 -135.5 -57t-55.5 -142t55.5 -142.5t135.5 -57.5q66 0 112.5 38t63.5 113z" />
    <glyph glyph-name="D" unicode="D" horiz-adv-x="725" 
d="M58 670h265q165 0 266 -92.5t101 -242.5t-101 -242.5t-266 -92.5h-265v670zM223 143h94q94 0 150.5 52.5t56.5 139.5t-56.5 139.5t-150.5 52.5h-94v-384z" />
    <glyph glyph-name="E" unicode="E" horiz-adv-x="625" 
d="M580 142v-142h-522v670h519v-142h-354v-126h325v-134h-325v-126h357z" />
    <glyph glyph-name="F" unicode="F" horiz-adv-x="598" 
d="M223 525v-141h314v-144h-314v-240h-165v670h518v-145h-353z" />
    <glyph glyph-name="G" unicode="G" horiz-adv-x="778" 
d="M370 395h369q4 -32 4 -61q0 -152 -98 -250.5t-249 -98.5q-152 0 -256.5 101t-104.5 249q0 147 103.5 248.5t254.5 101.5q115 0 204 -52.5t123 -148.5l-159 -46q-49 96 -168 96q-82 0 -137 -57t-55 -142t56.5 -142.5t140.5 -57.5q65 0 111.5 32t65.5 88h-205v140z" />
    <glyph glyph-name="H" unicode="H" horiz-adv-x="728" 
d="M669 670v-670h-164v265h-282v-265h-165v670h165v-261h282v261h164z" />
    <glyph glyph-name="I" unicode="I" horiz-adv-x="458" 
d="M311 526v-382h127v-144h-418v144h127v382h-127v144h418v-144h-127z" />
    <glyph glyph-name="J" unicode="J" horiz-adv-x="608" 
d="M552 670v-429q0 -113 -74.5 -184.5t-195.5 -71.5q-112 0 -182.5 61t-85.5 164l160 32q5 -52 33 -81t75 -29t76 30.5t29 78.5v285h-207v144h372z" />
    <glyph glyph-name="K" unicode="K" horiz-adv-x="714" 
d="M717 0h-200l-176 256l-118 -141v-115h-165v670h165v-331l279 331h187l-241 -287z" />
    <glyph glyph-name="L" unicode="L" horiz-adv-x="587" 
d="M553 144v-144h-495v670h165v-526h330z" />
    <glyph glyph-name="M" unicode="M" horiz-adv-x="889" 
d="M831 670v-670h-160v334l-175 -334h-102l-176 336v-336h-160v670h162l225 -415l225 415h161z" />
    <glyph glyph-name="N" unicode="N" horiz-adv-x="757" 
d="M698 670v-670h-136l-339 388v-388h-165v670h137l339 -400v400h164z" />
    <glyph glyph-name="O" unicode="O" horiz-adv-x="784" 
d="M392 685q150 0 253.5 -102t103.5 -249q0 -146 -103.5 -247.5t-253.5 -101.5t-253.5 101.5t-103.5 247.5q0 147 103.5 249t253.5 102zM392 136q82 0 137 56.5t55 141.5q0 86 -55 143t-137 57t-137 -57t-55 -143q0 -85 55 -141.5t137 -56.5z" />
    <glyph glyph-name="P" unicode="P" horiz-adv-x="664" 
d="M58 670h330q113 0 179.5 -63.5t66.5 -167.5q0 -106 -68.5 -170t-184.5 -64h-158v-205h-165v670zM223 343h146q48 0 75.5 25.5t27.5 68.5q0 41 -28 66.5t-75 25.5h-146v-186z" />
    <glyph glyph-name="Q" unicode="Q" horiz-adv-x="784" 
d="M571 -170l-119 160q-32 -5 -60 -5q-150 0 -253.5 101.5t-103.5 247.5q0 147 103.5 249t253.5 102t253.5 -102t103.5 -249q0 -83 -36 -155t-100 -121l174 -228h-216zM200 334q0 -85 55 -141.5t137 -56.5t137 56.5t55 141.5q0 86 -55 143t-137 57t-137 -57t-55 -143z" />
    <glyph glyph-name="R" unicode="R" horiz-adv-x="679" 
d="M672 0h-199l-202 230h-48v-230h-165v670h339q109 0 175 -60.5t66 -158.5q0 -82 -47 -138.5t-129 -74.5zM223 368h156q44 0 70.5 22t26.5 59q0 36 -26.5 58t-70.5 22h-156v-161z" />
    <glyph glyph-name="S" unicode="S" horiz-adv-x="646" 
d="M321 685q110 0 184 -51.5t93 -142.5l-162 -33q-9 45 -42 69.5t-75 24.5q-40 0 -65 -19.5t-25 -48.5q0 -44 54 -56l139 -31q184 -41 184 -195q0 -103 -79 -160t-197 -57q-117 0 -198.5 53.5t-94.5 149.5l170 33q24 -99 132 -99q46 0 72.5 19t26.5 50q0 24 -13.5 38
t-48.5 21l-140 30q-180 41 -180 194q0 97 73 154t192 57z" />
    <glyph glyph-name="T" unicode="T" horiz-adv-x="638" 
d="M618 526h-217v-526h-164v526h-217v144h598v-144z" />
    <glyph glyph-name="U" unicode="U" horiz-adv-x="713" 
d="M657 670v-368q0 -144 -81.5 -230.5t-215.5 -86.5q-137 0 -220.5 86.5t-83.5 230.5v368h165v-368q0 -76 38 -120.5t101 -44.5q60 0 96 44.5t36 120.5v368h165z" />
    <glyph glyph-name="V" unicode="V" horiz-adv-x="743" 
d="M736 670l-285 -670h-159l-285 670h182l182 -444l183 444h182z" />
    <glyph glyph-name="W" unicode="W" horiz-adv-x="973" 
d="M967 670l-191 -670h-177l-112 414l-113 -414h-176l-191 670h169l117 -422l115 422h157l115 -422l117 422h170z" />
    <glyph glyph-name="X" unicode="X" horiz-adv-x="683" 
d="M481 0l-140 228l-139 -228h-195l210 336l-208 334h195l137 -226l138 226h195l-208 -334l210 -336h-195z" />
    <glyph glyph-name="Y" unicode="Y" horiz-adv-x="706" 
d="M434 210v-210h-168v208l-259 462h180l165 -294l163 294h184z" />
    <glyph glyph-name="Z" unicode="Z" horiz-adv-x="635" 
d="M597 139v-139h-556v106l338 425h-328v139h538v-126l-313 -405h321z" />
    <glyph glyph-name="bracketleft" unicode="[" horiz-adv-x="410" 
d="M207 610v-561h166v-131h-315v823h315v-131h-166z" />
    <glyph glyph-name="backslash" unicode="\" horiz-adv-x="435" 
d="M420 -72h-117l-288 813h117z" />
    <glyph glyph-name="bracketright" unicode="]" horiz-adv-x="410" 
d="M352 741v-823h-315v131h166v561h-166v131h315z" />
    <glyph glyph-name="asciicircum" unicode="^" horiz-adv-x="464" 
d="M153 421h-136l156 249h118l156 -249h-136l-79 126z" />
    <glyph glyph-name="underscore" unicode="_" horiz-adv-x="540" 
d="M520 -175h-500v119h500v-119z" />
    <glyph glyph-name="grave" unicode="`" horiz-adv-x="600" 
d="M320 719l71 -152h-142l-119 152h190z" />
    <glyph glyph-name="a" unicode="a" horiz-adv-x="556" 
d="M284 517q107 0 168.5 -52t61.5 -147v-318h-154v37q-61 -52 -150 -52q-84 0 -135.5 45t-51.5 119q0 75 55 118.5t154 43.5h128v10q0 31 -19.5 50.5t-51.5 19.5q-73 0 -84 -63l-151 31q17 73 78.5 115.5t151.5 42.5zM255 105q43 0 74 26t31 67v11h-110q-30 0 -47.5 -14.5
t-17.5 -37.5q0 -24 19 -38t51 -14z" />
    <glyph glyph-name="b" unicode="b" horiz-adv-x="644" 
d="M374 517q102 0 173.5 -75t71.5 -191q0 -117 -71.5 -191.5t-173.5 -74.5q-96 0 -156 58v-43h-160v770h160v-311q60 58 156 58zM341 121q53 0 87 36t34 94q0 57 -34 93.5t-87 36.5q-50 0 -86.5 -37t-36.5 -93q0 -57 36.5 -93.5t86.5 -36.5z" />
    <glyph glyph-name="c" unicode="c" horiz-adv-x="580" 
d="M299 125q84 0 109 88l147 -32q-19 -88 -90 -142t-166 -54q-115 0 -194.5 74.5t-79.5 191.5q0 116 79.5 191t194.5 75q93 0 164 -53t92 -140l-150 -36q-10 44 -38 66.5t-68 22.5q-54 0 -87 -35.5t-33 -90.5q0 -56 33 -91t87 -35z" />
    <glyph glyph-name="d" unicode="d" horiz-adv-x="644" 
d="M586 770v-770h-160v43q-60 -58 -156 -58q-102 0 -173.5 74.5t-71.5 191.5q0 116 71.5 191t173.5 75q96 0 156 -58v311h160zM303 121q50 0 86.5 36.5t36.5 93.5q0 56 -36.5 93t-86.5 37q-53 0 -87 -36.5t-34 -93.5q0 -58 34 -94t87 -36z" />
    <glyph glyph-name="e" unicode="e" horiz-adv-x="575" 
d="M550 251v-41h-368q10 -45 39 -71t69 -26q75 0 107 58l142 -29q-32 -78 -96.5 -117.5t-152.5 -39.5q-111 0 -188 74.5t-77 191.5q0 116 77 191t189 75q109 0 183 -73t76 -193zM291 387q-35 0 -65 -21t-41 -58h207q-11 39 -38 59t-63 20z" />
    <glyph glyph-name="f" unicode="f" horiz-adv-x="377" 
d="M246 502h138v-127h-138v-375h-159v375h-72v127h72v85q0 88 55.5 140.5t146.5 52.5q50 0 99 -20l-34 -124q-21 7 -43 7q-29 0 -47 -16.5t-18 -45.5v-79z" />
    <glyph glyph-name="g" unicode="g" horiz-adv-x="644" 
d="M586 502v-512q0 -112 -84 -176t-211 -64q-178 0 -251 121l133 82q28 -34 54 -48t64 -14q58 0 96.5 29.5t38.5 85.5v37q-60 -58 -156 -58q-102 0 -173.5 74.5t-71.5 191.5q0 116 71.5 191t173.5 75q96 0 156 -58v43h160zM303 121q50 0 86.5 36.5t36.5 93.5q0 56 -36.5 93
t-86.5 37q-53 0 -87 -36.5t-34 -93.5q0 -58 34 -94t87 -36z" />
    <glyph glyph-name="h" unicode="h" horiz-adv-x="619" 
d="M373 517q87 0 140.5 -57.5t53.5 -151.5v-308h-159v274q0 44 -24 71.5t-63 27.5q-48 0 -75.5 -35t-27.5 -105v-233h-160v770h160v-316q61 63 155 63z" />
    <glyph glyph-name="i" unicode="i" horiz-adv-x="292" 
d="M146 741q40 0 66.5 -27t26.5 -64q0 -38 -26.5 -63.5t-66.5 -25.5t-66 25.5t-26 63.5t26 64.5t66 26.5zM226 0h-160v502h160v-502z" />
    <glyph glyph-name="j" unicode="j" horiz-adv-x="303" 
d="M157 741q40 0 66.5 -27t26.5 -64q0 -38 -26.5 -63.5t-66.5 -25.5t-66 25.5t-26 63.5t26 64.5t66 26.5zM-27 -229l24 126q26 -8 40 -8q19 0 30.5 11t11.5 29v573h159v-591q0 -73 -43.5 -117t-116.5 -44q-53 0 -105 21z" />
    <glyph glyph-name="k" unicode="k" horiz-adv-x="622" 
d="M625 0h-197l-134 171l-76 -86v-85h-160v770h160v-469l181 201h187l-185 -210z" />
    <glyph glyph-name="l" unicode="l" horiz-adv-x="339" 
d="M211 770v-599q0 -20 13 -32t35 -12q18 0 58 14l25 -125q-64 -31 -118 -31q-78 0 -125.5 48t-47.5 126v611h160z" />
    <glyph glyph-name="m" unicode="m" horiz-adv-x="951" 
d="M708 517q82 0 137 -56.5t55 -146.5v-314h-159v280q0 42 -24 67.5t-60 25.5q-45 0 -71.5 -32.5t-26.5 -94.5v-246h-160v280q0 42 -24 67.5t-61 25.5q-45 0 -70.5 -32.5t-25.5 -94.5v-246h-160v502h160v-46q55 61 148 61q111 0 164 -85q65 85 178 85z" />
    <glyph glyph-name="n" unicode="n" horiz-adv-x="618" 
d="M372 517q88 0 141.5 -57.5t53.5 -151.5v-308h-159v274q0 44 -24 71.5t-62 27.5q-49 0 -76.5 -34.5t-27.5 -105.5v-233h-160v502h160v-48q60 63 154 63z" />
    <glyph glyph-name="o" unicode="o" horiz-adv-x="603" 
d="M303 515q115 0 195 -74t80 -190q0 -117 -80 -191t-195 -74q-117 0 -197.5 74t-80.5 191q0 116 80.5 190t197.5 74zM303 121q49 0 85 36.5t36 93.5t-36.5 93.5t-84.5 36.5q-50 0 -87 -36.5t-37 -93.5t36.5 -93.5t87.5 -36.5z" />
    <glyph glyph-name="p" unicode="p" horiz-adv-x="644" 
d="M374 517q102 0 173.5 -75t71.5 -191q0 -117 -71.5 -191.5t-173.5 -74.5q-96 0 -156 58v-283h-160v742h160v-43q60 58 156 58zM341 121q53 0 87 36t34 94q0 57 -34 93.5t-87 36.5q-50 0 -86.5 -37t-36.5 -93q0 -57 36.5 -93.5t86.5 -36.5z" />
    <glyph glyph-name="q" unicode="q" horiz-adv-x="644" 
d="M586 502v-742h-160v283q-60 -58 -156 -58q-102 0 -173.5 74.5t-71.5 191.5q0 116 71.5 191t173.5 75q96 0 156 -58v43h160zM303 121q50 0 86.5 36.5t36.5 93.5q0 56 -36.5 93t-86.5 37q-53 0 -87 -36.5t-34 -93.5q0 -58 34 -94t87 -36z" />
    <glyph glyph-name="r" unicode="r" horiz-adv-x="437" 
d="M391 509q20 0 36 -4l-7 -160h-29q-173 0 -173 -188v-157h-160v502h160v-96q62 103 173 103z" />
    <glyph glyph-name="s" unicode="s" horiz-adv-x="515" 
d="M24 131l156 32q10 -59 89 -59q30 0 47.5 11.5t17.5 28.5q0 28 -50 37l-102 20q-146 27 -146 146q0 77 60 123.5t156 46.5q92 0 152.5 -39t75.5 -105l-146 -29q-4 25 -26.5 42t-57.5 17q-30 0 -43.5 -11.5t-13.5 -27.5q0 -27 38 -35l118 -24q69 -15 104 -54.5t35 -96.5
q0 -81 -63 -125t-165 -44q-95 0 -159.5 36.5t-76.5 109.5z" />
    <glyph glyph-name="t" unicode="t" horiz-adv-x="433" 
d="M393 148l37 -126q-69 -37 -137 -37q-95 0 -147.5 51t-52.5 149v190h-91v127h91v168h160v-168h148v-127h-148v-174q0 -73 67 -73q38 0 73 20z" />
    <glyph glyph-name="u" unicode="u" horiz-adv-x="618" 
d="M560 502v-502h-160v48q-60 -63 -154 -63q-88 0 -141.5 57.5t-53.5 151.5v308h159v-274q0 -44 24 -71.5t62 -27.5q49 0 76.5 34.5t27.5 105.5v233h160z" />
    <glyph glyph-name="v" unicode="v" horiz-adv-x="593" 
d="M586 503l-208 -503h-163l-208 503h169l121 -310l120 310h169z" />
    <glyph glyph-name="w" unicode="w" horiz-adv-x="795" 
d="M788 502l-161 -503h-139l-90 272l-91 -272h-139l-161 503h157l82 -270l95 270h113l95 -271l82 271h157z" />
    <glyph glyph-name="x" unicode="x" horiz-adv-x="604" 
d="M416 243l166 -243h-184l-96 145l-97 -145h-183l165 243l-165 260h183l97 -156l96 156h184z" />
    <glyph glyph-name="y" unicode="y" horiz-adv-x="604" 
d="M597 503l-320 -743h-173l111 257l-208 486h172l119 -294l127 294h172z" />
    <glyph glyph-name="z" unicode="z" horiz-adv-x="538" 
d="M501 127v-127h-464v103l252 272h-246v127h449v-105l-252 -270h261z" />
    <glyph glyph-name="braceleft" unicode="{" horiz-adv-x="421" 
d="M263 582v-147q0 -80 -62 -106q62 -26 62 -106v-147q0 -29 26 -29h95v-129h-133q-62 0 -99.5 36t-37.5 94v154q0 24 -15 36t-45 22l-34 10v118l34 10q30 10 45 22t15 36v154q0 59 38 95t99 36h133v-130h-95q-26 0 -26 -29z" />
    <glyph glyph-name="bar" unicode="|" horiz-adv-x="265" 
d="M207 -72h-149v813h149v-813z" />
    <glyph glyph-name="braceright" unicode="}" horiz-adv-x="421" 
d="M401 388v-118l-34 -10q-31 -10 -46 -22t-15 -36v-154q0 -59 -37.5 -94.5t-98.5 -35.5h-133v129h94q27 0 27 29v147q0 80 62 106q-62 26 -62 106v147q0 29 -27 29h-94v130h133q61 0 98.5 -36t37.5 -95v-154q0 -24 15 -36t46 -22z" />
    <glyph glyph-name="asciitilde" unicode="~" horiz-adv-x="507" 
d="M160 227h-117q0 88 40.5 127.5t90.5 39.5q41 0 80.5 -20.5t53.5 -20.5q16 0 25.5 11t8.5 28h123q0 -89 -42.5 -129t-94.5 -40q-41 0 -79.5 19.5t-51.5 19.5q-35 0 -37 -35z" />
    <glyph glyph-name="exclamdown" unicode="&#xa1;" horiz-adv-x="297" 
d="M151 339q-40 0 -66 26t-26 63q0 38 26 63t66 25t65.5 -25t25.5 -63q0 -37 -26 -63t-65 -26zM60 -128l10 410h158l10 -410v-31h-178v31z" />
    <glyph glyph-name="cent" unicode="&#xa2;" horiz-adv-x="580" 
d="M299 125q84 0 109 88l147 -32q-15 -72 -66.5 -122t-124.5 -67v-122h-133v123q-91 21 -148.5 90.5t-57.5 167.5t57.5 167.5t148.5 90.5v121h133v-120q71 -17 122.5 -66t68.5 -120l-150 -36q-10 44 -38 66.5t-68 22.5q-54 0 -87 -35.5t-33 -90.5q0 -56 33 -91t87 -35z" />
    <glyph glyph-name="sterling" unicode="&#xa3;" horiz-adv-x="617" 
d="M272 143h317v-143h-552v103l74 22v108h-74v137h74v85q0 103 65.5 166.5t173.5 63.5q103 0 167 -62.5t72 -163.5l-154 -28q-10 105 -85 105q-35 0 -56.5 -22t-21.5 -59v-85h166v-137h-166v-90z" />
    <glyph glyph-name="yen" unicode="&#xa5;" horiz-adv-x="698" 
d="M481 331h122v-103h-175v-43h175v-104h-175v-81h-165v81h-167v104h167v43h-167v103h115l-194 339h175l154 -278l152 278h183z" />
    <glyph glyph-name="section" unicode="&#xa7;" horiz-adv-x="550" 
d="M523 253q0 -93 -82 -140q26 -37 26 -89q0 -80 -56.5 -123t-144.5 -43q-100 0 -157 49t-59 131l134 25q7 -87 75 -87q25 0 41.5 14.5t16.5 37.5q0 33 -48 54l-124 49q-65 26 -95 63.5t-30 94.5q0 89 82 139q-26 37 -26 89q0 82 56 125t145 43q95 0 150.5 -48t60.5 -127
l-136 -24q-4 80 -68 80q-25 0 -41.5 -14.5t-16.5 -37.5q0 -33 48 -54l124 -49q125 -47 125 -158zM335 191l11 -5q37 22 37 52q0 35 -48 58l-127 56l-12 5q-36 -20 -36 -53q0 -34 48 -58z" />
    <glyph glyph-name="dieresis" unicode="&#xa8;" horiz-adv-x="600" 
d="M186 731q38 0 64 -26t26 -62q0 -38 -25.5 -62.5t-64.5 -24.5t-64 24.5t-25 62.5q0 36 25.5 62t63.5 26zM414 731q38 0 64 -26t26 -62q0 -38 -25.5 -62.5t-64.5 -24.5t-64 24.5t-25 62.5q0 36 25.5 62t63.5 26z" />
    <glyph glyph-name="copyright" unicode="&#xa9;" horiz-adv-x="756" 
d="M376 685q146 0 248 -100t102 -252q0 -150 -102 -249t-248 -99t-248.5 99t-102.5 249q0 152 102.5 252t248.5 100zM376 629q-120 0 -204.5 -84t-84.5 -211q0 -126 84.5 -209t204.5 -83t204 83t84 209t-84 210.5t-204 84.5zM381 522q75 0 125 -40.5t56 -101.5l-96 -18
q-7 30 -30.5 47.5t-55.5 17.5q-38 0 -63.5 -26.5t-25.5 -66.5t25.5 -66.5t63.5 -26.5q33 0 57 18.5t28 52.5l97 -16q-5 -66 -54.5 -108t-126.5 -42q-79 0 -135.5 52.5t-56.5 135.5t56.5 135.5t135.5 52.5z" />
    <glyph glyph-name="ordfeminine" unicode="&#xaa;" horiz-adv-x="390" 
d="M202 674q73 0 117 -34.5t44 -102.5v-203h-114v19q-37 -28 -93 -28q-55 0 -89.5 30t-34.5 79q0 48 39 76t106 28h72v10q1 18 -10.5 29.5t-31.5 11.5q-37 0 -49 -37l-104 21q13 49 51.5 75t96.5 26zM189 404q27 0 43.5 14t16.5 38v15h-58q-20 0 -32 -9t-12 -24
q0 -34 42 -34z" />
    <glyph glyph-name="guillemotleft" unicode="&#xab;" horiz-adv-x="505" 
d="M25 262l105 178h150l-105 -178l105 -178h-150zM225 262l105 178h150l-105 -178l105 -178h-150z" />
    <glyph glyph-name="registered" unicode="&#xae;" horiz-adv-x="487" 
d="M243 685q84 0 142 -57t58 -144q0 -86 -58 -143t-142 -57t-142 57t-58 143q0 87 58 144t142 57zM243 326q66 0 111.5 45.5t45.5 112.5q0 68 -45.5 114t-111.5 46q-65 0 -110.5 -46t-45.5 -114q0 -67 46 -112.5t110 -45.5zM331 520q0 -44 -42 -60l51 -61h-54l-46 56h-25
v-56h-46v182h88q34 0 54 -17t20 -44zM215 494h41q31 0 31 25q0 23 -31 23h-41v-48z" />
    <glyph glyph-name="macron" unicode="&#xaf;" horiz-adv-x="600" 
d="M466 570h-332v124h332v-124z" />
    <glyph glyph-name="degree" unicode="&#xb0;" horiz-adv-x="428" 
d="M215 685q65 0 111 -42.5t46 -110.5q0 -67 -46 -109.5t-111 -42.5q-66 0 -112.5 42.5t-46.5 109.5q0 68 46.5 110.5t112.5 42.5zM215 470q23 0 41 17t18 46q0 28 -18 45t-41 17q-25 0 -43 -17t-18 -45q0 -29 18 -46t43 -17z" />
    <glyph glyph-name="plusminus" unicode="&#xb1;" horiz-adv-x="573" 
d="M523 465v-130h-171v-141h-131v141h-171v130h171v160h131v-160h171zM50 130h473v-130h-473v130z" />
    <glyph glyph-name="acute" unicode="&#xb4;" horiz-adv-x="600" 
d="M341 567h-142l71 152h190z" />
    <glyph glyph-name="paragraph" unicode="&#xb6;" horiz-adv-x="606" 
d="M390 0h-111v299h-50q-91 0 -150 51.5t-59 137.5q0 88 52.5 135t142.5 47h175v-670zM547 0h-110v670h110v-670z" />
    <glyph glyph-name="periodcentered" unicode="&#xb7;" horiz-adv-x="246" 
d="M123 351q39 0 65.5 -26.5t26.5 -63.5q0 -38 -26 -64t-66 -26q-39 0 -65 25.5t-26 64.5q0 37 26 63.5t65 26.5z" />
    <glyph glyph-name="cedilla" unicode="&#xb8;" horiz-adv-x="600" 
d="M281 0h115l-49 -160h-166z" />
    <glyph glyph-name="ordmasculine" unicode="&#xba;" horiz-adv-x="422" 
d="M210 674q78 0 131.5 -49t53.5 -126q0 -76 -54 -125t-131 -49q-76 0 -129.5 49t-53.5 125q0 77 53.5 126t129.5 49zM210 426q30 0 51 21t21 52t-21 52.5t-51 21.5q-29 0 -49 -21.5t-20 -52.5t20 -52t49 -21z" />
    <glyph glyph-name="guillemotright" unicode="&#xbb;" horiz-adv-x="505" 
d="M25 84l105 178l-105 178h150l105 -178l-105 -178h-150zM225 84l105 178l-105 178h150l105 -178l-105 -178h-150z" />
    <glyph glyph-name="onequarter" unicode="&#xbc;" horiz-adv-x="750" 
d="M95 531l-78 -46v111l115 74h72v-383h-109v244zM661 670l-484 -670h-94l484 670h94zM727 64h-48v-64h-101v64h-196v98l170 221h127v-230h48v-89zM578 153v121l-92 -121h92z" />
    <glyph glyph-name="onehalf" unicode="&#xbd;" horiz-adv-x="805" 
d="M95 531l-78 -46v111l115 74h72v-383h-109v244zM644 670l-484 -670h-94l485 670h93zM601 93h128v-93h-294v69l141 124q20 17 28.5 25.5t15 20.5t6.5 24q0 17 -11.5 27.5t-30.5 10.5q-48 0 -49 -62l-97 21q0 60 40 96.5t106 36.5t106.5 -34.5t40.5 -95.5q0 -38 -20.5 -67
t-62.5 -64z" />
    <glyph glyph-name="threequarters" unicode="&#xbe;" horiz-adv-x="825" 
d="M324 406q0 -54 -42.5 -89.5t-108.5 -35.5q-64 0 -106 34t-46 91l95 21q6 -57 58 -57q21 0 34 11t13 28t-13.5 26.5t-34.5 9.5h-42v76h36q22 0 36.5 9.5t14.5 25.5q0 17 -12.5 27t-33.5 10q-49 0 -51 -54l-98 21q6 53 46.5 86.5t101.5 33.5q65 0 106 -34t41 -86
q0 -49 -46 -74q52 -26 52 -80zM729 670l-484 -670h-94l485 670h93zM802 64h-48v-64h-101v64h-196v98l170 221h127v-230h48v-89zM653 153v121l-92 -121h92z" />
    <glyph glyph-name="questiondown" unicode="&#xbf;" horiz-adv-x="543" 
d="M278 339q-39 0 -65.5 26.5t-26.5 62.5q0 38 26 63t66 25t65.5 -25t25.5 -63q0 -36 -26 -62.5t-65 -26.5zM360 60l156 -31q-11 -86 -80.5 -144.5t-178.5 -58.5q-105 0 -170 60.5t-65 155.5q0 73 47.5 122.5t130.5 65.5v50h152v-161h-80q-41 0 -66.5 -20t-25.5 -52
q0 -36 23 -58.5t60 -22.5q39 0 64.5 25.5t32.5 68.5z" />
    <glyph glyph-name="Agrave" unicode="&#xc0;" horiz-adv-x="729" 
d="M296 735l-119 152h190l71 -152h-142zM729 0h-176l-47 122h-282l-47 -122h-177l280 670h169zM451 264l-86 220l-85 -220h171z" />
    <glyph glyph-name="Aacute" unicode="&#xc1;" horiz-adv-x="729" 
d="M438 735h-142l71 152h190zM729 0h-176l-47 122h-282l-47 -122h-177l280 670h169zM451 264l-86 220l-85 -220h171z" />
    <glyph glyph-name="Acircumflex" unicode="&#xc2;" horiz-adv-x="729" 
d="M325 729h-154l115 155h159l116 -155h-155l-40 56zM729 0h-176l-47 122h-282l-47 -122h-177l280 670h169zM451 264l-86 220l-85 -220h171z" />
    <glyph glyph-name="Atilde" unicode="&#xc3;" horiz-adv-x="729" 
d="M319 780q-26 0 -31 -33h-97q0 76 34 114t81 38q35 0 69 -18.5t52 -18.5q26 0 31 36h97q0 -78 -33.5 -116t-82.5 -38q-35 0 -68.5 18t-51.5 18zM729 0h-176l-47 122h-282l-47 -122h-177l280 670h169zM451 264l-86 220l-85 -220h171z" />
    <glyph glyph-name="Adieresis" unicode="&#xc4;" horiz-adv-x="729" 
d="M251 724q-39 0 -64 24.5t-25 62.5q0 36 25.5 62t63.5 26t64 -26t26 -62q0 -38 -25.5 -62.5t-64.5 -24.5zM479 724q-39 0 -64 24.5t-25 62.5q0 36 25.5 62t63.5 26t64 -26t26 -62q0 -38 -25.5 -62.5t-64.5 -24.5zM729 0h-176l-47 122h-282l-47 -122h-177l280 670h169z
M451 264l-86 220l-85 -220h171z" />
    <glyph glyph-name="Aring" unicode="&#xc5;" horiz-adv-x="729" 
d="M365 711q-53 0 -89.5 35.5t-36.5 86.5q0 52 36.5 87.5t89.5 35.5t89.5 -35.5t36.5 -87.5q0 -51 -36.5 -86.5t-89.5 -35.5zM365 873q-17 0 -29 -11.5t-12 -28.5q0 -16 12 -27.5t29 -11.5t29 11.5t12 27.5q0 17 -12 28.5t-29 11.5zM729 0h-176l-47 122h-282l-47 -122h-177
l280 670h169zM451 264l-86 220l-85 -220h171z" />
    <glyph glyph-name="AE" unicode="&#xc6;" horiz-adv-x="1046" 
d="M1007 142v-142h-521v109h-229l-65 -109h-192l429 670h575v-142h-354v-126h326v-134h-326v-126h357zM486 251v241l-144 -241h144z" />
    <glyph glyph-name="Ccedilla" unicode="&#xc7;" horiz-adv-x="764" 
d="M567 286l162 -35q-21 -113 -99.5 -182.5t-192.5 -81.5l-45 -147h-166l95 152q-125 23 -205.5 118.5t-80.5 224.5q0 147 103.5 248.5t252.5 101.5q126 0 219.5 -70t117.5 -187l-162 -41q-15 73 -61.5 110t-113.5 37q-80 0 -135.5 -57t-55.5 -142t55.5 -142.5t135.5 -57.5
q66 0 112.5 38t63.5 113z" />
    <glyph glyph-name="Egrave" unicode="&#xc8;" horiz-adv-x="625" 
d="M259 735l-119 152h190l71 -152h-142zM580 142v-142h-522v670h519v-142h-354v-126h325v-134h-325v-126h357z" />
    <glyph glyph-name="Eacute" unicode="&#xc9;" horiz-adv-x="625" 
d="M400 735h-142l71 152h190zM580 142v-142h-522v670h519v-142h-354v-126h325v-134h-325v-126h357z" />
    <glyph glyph-name="Ecircumflex" unicode="&#xca;" horiz-adv-x="625" 
d="M288 729h-154l115 155h159l116 -155h-155l-40 56zM580 142v-142h-522v670h519v-142h-354v-126h325v-134h-325v-126h357z" />
    <glyph glyph-name="Edieresis" unicode="&#xcb;" horiz-adv-x="625" 
d="M214 724q-39 0 -64 24.5t-25 62.5q0 36 25.5 62t63.5 26t64 -26t26 -62q0 -38 -25.5 -62.5t-64.5 -24.5zM442 724q-39 0 -64 24.5t-25 62.5q0 36 25.5 62t63.5 26t64 -26t26 -62q0 -38 -25.5 -62.5t-64.5 -24.5zM580 142v-142h-522v670h519v-142h-354v-126h325v-134h-325
v-126h357z" />
    <glyph glyph-name="Igrave" unicode="&#xcc;" horiz-adv-x="458" 
d="M160 735l-119 152h190l71 -152h-142zM311 526v-382h127v-144h-418v144h127v382h-127v144h418v-144h-127z" />
    <glyph glyph-name="Iacute" unicode="&#xcd;" horiz-adv-x="458" 
d="M301 735h-142l71 152h190zM311 526v-382h127v-144h-418v144h127v382h-127v144h418v-144h-127z" />
    <glyph glyph-name="Icircumflex" unicode="&#xce;" horiz-adv-x="458" 
d="M189 729h-154l115 155h159l116 -155h-155l-40 56zM311 526v-382h127v-144h-418v144h127v382h-127v144h418v-144h-127z" />
    <glyph glyph-name="Idieresis" unicode="&#xcf;" horiz-adv-x="458" 
d="M115 724q-39 0 -64 24.5t-25 62.5q0 36 25.5 62t63.5 26t64 -26t26 -62q0 -38 -25.5 -62.5t-64.5 -24.5zM343 724q-39 0 -64 24.5t-25 62.5q0 36 25.5 62t63.5 26t64 -26t26 -62q0 -38 -25.5 -62.5t-64.5 -24.5zM311 526v-382h127v-144h-418v144h127v382h-127v144h418
v-144h-127z" />
    <glyph glyph-name="Eth" unicode="&#xd0;" horiz-adv-x="733" 
d="M77 670h265q165 0 265.5 -92.5t100.5 -242.5t-100.5 -242.5t-265.5 -92.5h-265v263h-54v144h54v263zM241 143h94q94 0 151 52.5t57 139.5t-57 139.5t-151 52.5h-94v-120h113v-144h-113v-120z" />
    <glyph glyph-name="Ntilde" unicode="&#xd1;" horiz-adv-x="757" 
d="M335 780q-26 0 -31 -33h-97q0 76 34 114t81 38q35 0 69 -18.5t52 -18.5q26 0 31 36h97q0 -78 -33.5 -116t-82.5 -38q-35 0 -68.5 18t-51.5 18zM698 670v-670h-136l-339 388v-388h-165v670h137l339 -400v400h164z" />
    <glyph glyph-name="Ograve" unicode="&#xd2;" horiz-adv-x="784" 
d="M323 735l-119 152h190l71 -152h-142zM392 685q150 0 253.5 -102t103.5 -249q0 -146 -103.5 -247.5t-253.5 -101.5t-253.5 101.5t-103.5 247.5q0 147 103.5 249t253.5 102zM392 136q82 0 137 56.5t55 141.5q0 86 -55 143t-137 57t-137 -57t-55 -143q0 -85 55 -141.5
t137 -56.5z" />
    <glyph glyph-name="Oacute" unicode="&#xd3;" horiz-adv-x="784" 
d="M464 735h-142l71 152h190zM392 685q150 0 253.5 -102t103.5 -249q0 -146 -103.5 -247.5t-253.5 -101.5t-253.5 101.5t-103.5 247.5q0 147 103.5 249t253.5 102zM392 136q82 0 137 56.5t55 141.5q0 86 -55 143t-137 57t-137 -57t-55 -143q0 -85 55 -141.5t137 -56.5z" />
    <glyph glyph-name="Ocircumflex" unicode="&#xd4;" horiz-adv-x="784" 
d="M352 729h-154l115 155h159l116 -155h-155l-40 56zM392 685q150 0 253.5 -102t103.5 -249q0 -146 -103.5 -247.5t-253.5 -101.5t-253.5 101.5t-103.5 247.5q0 147 103.5 249t253.5 102zM392 136q82 0 137 56.5t55 141.5q0 86 -55 143t-137 57t-137 -57t-55 -143
q0 -85 55 -141.5t137 -56.5z" />
    <glyph glyph-name="Otilde" unicode="&#xd5;" horiz-adv-x="784" 
d="M345 780q-26 0 -31 -33h-97q0 76 34 114t81 38q35 0 69 -18.5t52 -18.5q26 0 31 36h97q0 -78 -33.5 -116t-82.5 -38q-35 0 -68.5 18t-51.5 18zM392 685q150 0 253.5 -102t103.5 -249q0 -146 -103.5 -247.5t-253.5 -101.5t-253.5 101.5t-103.5 247.5q0 147 103.5 249
t253.5 102zM392 136q82 0 137 56.5t55 141.5q0 86 -55 143t-137 57t-137 -57t-55 -143q0 -85 55 -141.5t137 -56.5z" />
    <glyph glyph-name="Odieresis" unicode="&#xd6;" horiz-adv-x="784" 
d="M278 724q-39 0 -64 24.5t-25 62.5q0 36 25.5 62t63.5 26t64 -26t26 -62q0 -38 -25.5 -62.5t-64.5 -24.5zM506 724q-39 0 -64 24.5t-25 62.5q0 36 25.5 62t63.5 26t64 -26t26 -62q0 -38 -25.5 -62.5t-64.5 -24.5zM392 685q150 0 253.5 -102t103.5 -249
q0 -146 -103.5 -247.5t-253.5 -101.5t-253.5 101.5t-103.5 247.5q0 147 103.5 249t253.5 102zM392 136q82 0 137 56.5t55 141.5q0 86 -55 143t-137 57t-137 -57t-55 -143q0 -85 55 -141.5t137 -56.5z" />
    <glyph glyph-name="multiply" unicode="&#xd7;" horiz-adv-x="531" 
d="M359 304l132 -132l-93 -93l-132 132l-133 -132l-92 93l132 132l-132 131l92 93l133 -132l132 132l93 -93z" />
    <glyph glyph-name="Oslash" unicode="&#xd8;" horiz-adv-x="784" 
d="M740 593l-56 -56q65 -90 65 -203q0 -146 -103.5 -247.5t-253.5 -101.5q-110 0 -201 59l-67 -67l-80 80l64 64q-73 92 -73 213q0 147 103.5 249t253.5 102q119 0 213 -67l55 55zM200 334q0 -54 23 -98l270 270q-45 28 -101 28q-82 0 -137 -57t-55 -143zM392 136
q82 0 137 56.5t55 141.5q0 46 -17 86l-263 -263q39 -21 88 -21z" />
    <glyph glyph-name="Ugrave" unicode="&#xd9;" horiz-adv-x="713" 
d="M287 735l-119 152h190l71 -152h-142zM657 670v-368q0 -144 -81.5 -230.5t-215.5 -86.5q-137 0 -220.5 86.5t-83.5 230.5v368h165v-368q0 -76 38 -120.5t101 -44.5q60 0 96 44.5t36 120.5v368h165z" />
    <glyph glyph-name="Uacute" unicode="&#xda;" horiz-adv-x="713" 
d="M428 735h-142l71 152h190zM657 670v-368q0 -144 -81.5 -230.5t-215.5 -86.5q-137 0 -220.5 86.5t-83.5 230.5v368h165v-368q0 -76 38 -120.5t101 -44.5q60 0 96 44.5t36 120.5v368h165z" />
    <glyph glyph-name="Ucircumflex" unicode="&#xdb;" horiz-adv-x="713" 
d="M316 729h-154l115 155h159l116 -155h-155l-40 56zM657 670v-368q0 -144 -81.5 -230.5t-215.5 -86.5q-137 0 -220.5 86.5t-83.5 230.5v368h165v-368q0 -76 38 -120.5t101 -44.5q60 0 96 44.5t36 120.5v368h165z" />
    <glyph glyph-name="Udieresis" unicode="&#xdc;" horiz-adv-x="713" 
d="M242 724q-39 0 -64 24.5t-25 62.5q0 36 25.5 62t63.5 26t64 -26t26 -62q0 -38 -25.5 -62.5t-64.5 -24.5zM470 724q-39 0 -64 24.5t-25 62.5q0 36 25.5 62t63.5 26t64 -26t26 -62q0 -38 -25.5 -62.5t-64.5 -24.5zM657 670v-368q0 -144 -81.5 -230.5t-215.5 -86.5
q-137 0 -220.5 86.5t-83.5 230.5v368h165v-368q0 -76 38 -120.5t101 -44.5q60 0 96 44.5t36 120.5v368h165z" />
    <glyph glyph-name="Yacute" unicode="&#xdd;" horiz-adv-x="706" 
d="M425 735h-142l71 152h190zM434 210v-210h-168v208l-259 462h180l165 -294l163 294h184z" />
    <glyph glyph-name="Thorn" unicode="&#xde;" horiz-adv-x="651" 
d="M223 565h150q110 0 177.5 -63t67.5 -166q0 -104 -69.5 -167.5t-181.5 -63.5h-144v-105h-165v670h165v-105zM223 243h134q45 0 72 25t27 66t-27 65.5t-72 24.5h-134v-181z" />
    <glyph glyph-name="germandbls" unicode="&#xdf;" horiz-adv-x="664" 
d="M506 383q61 -18 95.5 -64t34.5 -116q0 -92 -62 -152t-162 -60q-70 0 -137 12l17 131q66 -10 95 -10q44 0 73 26t29 61q0 45 -35 70.5t-98 25.5h-43v128h22q46 0 73 22t27 57q0 40 -26.5 64.5t-70.5 24.5q-54 0 -87 -34t-33 -92v-477h-160v465q0 122 77 197t203 75
q111 0 181.5 -58.5t70.5 -147.5q0 -109 -84 -148z" />
    <glyph glyph-name="agrave" unicode="&#xe0;" horiz-adv-x="556" 
d="M214 567l-119 152h190l71 -152h-142zM284 517q107 0 168.5 -52t61.5 -147v-318h-154v37q-61 -52 -150 -52q-84 0 -135.5 45t-51.5 119q0 75 55 118.5t154 43.5h128v10q0 31 -19.5 50.5t-51.5 19.5q-73 0 -84 -63l-151 31q17 73 78.5 115.5t151.5 42.5zM255 105
q43 0 74 26t31 67v11h-110q-30 0 -47.5 -14.5t-17.5 -37.5q0 -24 19 -38t51 -14z" />
    <glyph glyph-name="aacute" unicode="&#xe1;" horiz-adv-x="556" 
d="M355 567h-142l71 152h190zM284 517q107 0 168.5 -52t61.5 -147v-318h-154v37q-61 -52 -150 -52q-84 0 -135.5 45t-51.5 119q0 75 55 118.5t154 43.5h128v10q0 31 -19.5 50.5t-51.5 19.5q-73 0 -84 -63l-151 31q17 73 78.5 115.5t151.5 42.5zM255 105q43 0 74 26t31 67v11
h-110q-30 0 -47.5 -14.5t-17.5 -37.5q0 -24 19 -38t51 -14z" />
    <glyph glyph-name="acircumflex" unicode="&#xe2;" horiz-adv-x="556" 
d="M243 561h-154l115 155h159l116 -155h-155l-40 56zM284 517q107 0 168.5 -52t61.5 -147v-318h-154v37q-61 -52 -150 -52q-84 0 -135.5 45t-51.5 119q0 75 55 118.5t154 43.5h128v10q0 31 -19.5 50.5t-51.5 19.5q-73 0 -84 -63l-151 31q17 73 78.5 115.5t151.5 42.5z
M255 105q43 0 74 26t31 67v11h-110q-30 0 -47.5 -14.5t-17.5 -37.5q0 -24 19 -38t51 -14z" />
    <glyph glyph-name="atilde" unicode="&#xe3;" horiz-adv-x="556" 
d="M236 612q-26 0 -31 -33h-97q0 76 34 114t81 38q35 0 69 -18.5t52 -18.5q26 0 31 36h97q0 -78 -33.5 -116t-82.5 -38q-35 0 -68.5 18t-51.5 18zM284 517q107 0 168.5 -52t61.5 -147v-318h-154v37q-61 -52 -150 -52q-84 0 -135.5 45t-51.5 119q0 75 55 118.5t154 43.5h128
v10q0 31 -19.5 50.5t-51.5 19.5q-73 0 -84 -63l-151 31q17 73 78.5 115.5t151.5 42.5zM255 105q43 0 74 26t31 67v11h-110q-30 0 -47.5 -14.5t-17.5 -37.5q0 -24 19 -38t51 -14z" />
    <glyph glyph-name="adieresis" unicode="&#xe4;" horiz-adv-x="556" 
d="M169 556q-39 0 -64 24.5t-25 62.5q0 36 25.5 62t63.5 26t64 -26t26 -62q0 -38 -25.5 -62.5t-64.5 -24.5zM397 556q-39 0 -64 24.5t-25 62.5q0 36 25.5 62t63.5 26t64 -26t26 -62q0 -38 -25.5 -62.5t-64.5 -24.5zM284 517q107 0 168.5 -52t61.5 -147v-318h-154v37
q-61 -52 -150 -52q-84 0 -135.5 45t-51.5 119q0 75 55 118.5t154 43.5h128v10q0 31 -19.5 50.5t-51.5 19.5q-73 0 -84 -63l-151 31q17 73 78.5 115.5t151.5 42.5zM255 105q43 0 74 26t31 67v11h-110q-30 0 -47.5 -14.5t-17.5 -37.5q0 -24 19 -38t51 -14z" />
    <glyph glyph-name="aring" unicode="&#xe5;" horiz-adv-x="556" 
d="M283 543q-53 0 -89.5 35.5t-36.5 86.5q0 52 36.5 87.5t89.5 35.5t89.5 -35.5t36.5 -87.5q0 -51 -36.5 -86.5t-89.5 -35.5zM283 705q-17 0 -29 -11.5t-12 -28.5q0 -16 12 -27.5t29 -11.5t29 11.5t12 27.5q0 17 -12 28.5t-29 11.5zM284 517q107 0 168.5 -52t61.5 -147v-318
h-154v37q-61 -52 -150 -52q-84 0 -135.5 45t-51.5 119q0 75 55 118.5t154 43.5h128v10q0 31 -19.5 50.5t-51.5 19.5q-73 0 -84 -63l-151 31q17 73 78.5 115.5t151.5 42.5zM255 105q43 0 74 26t31 67v11h-110q-30 0 -47.5 -14.5t-17.5 -37.5q0 -24 19 -38t51 -14z" />
    <glyph glyph-name="ae" unicode="&#xe6;" horiz-adv-x="896" 
d="M871 204h-367q24 -91 112 -91q70 0 100 58l140 -29q-20 -70 -87 -113.5t-155 -43.5q-110 0 -187 71q-75 -71 -201 -71q-97 0 -150 44t-53 117t54.5 112.5t155.5 39.5h127v23q0 33 -21.5 53t-56.5 20q-33 0 -54 -17t-25 -48l-148 30q11 70 71.5 114t156.5 44
q105 0 167 -53q70 53 161 53q112 0 186 -74.5t74 -198.5v-40zM504 298h210q-9 45 -36 68t-64 23q-40 0 -70.5 -23.5t-39.5 -67.5zM360 202h-110q-69 0 -69 -47q0 -24 19 -38.5t51 -14.5q42 0 75.5 25t33.5 60v15z" />
    <glyph glyph-name="ccedilla" unicode="&#xe7;" horiz-adv-x="580" 
d="M299 125q84 0 109 88l147 -32q-16 -75 -70.5 -126t-131.5 -65l-46 -150h-166l95 152q-92 19 -151.5 89t-59.5 170q0 116 79.5 191t194.5 75q93 0 164 -53t92 -140l-150 -36q-10 44 -38 66.5t-68 22.5q-54 0 -87 -35.5t-33 -90.5q0 -56 33 -91t87 -35z" />
    <glyph glyph-name="egrave" unicode="&#xe8;" horiz-adv-x="575" 
d="M224 567l-119 152h190l71 -152h-142zM550 251v-41h-368q10 -45 39 -71t69 -26q75 0 107 58l142 -29q-32 -78 -96.5 -117.5t-152.5 -39.5q-111 0 -188 74.5t-77 191.5q0 116 77 191t189 75q109 0 183 -73t76 -193zM291 387q-35 0 -65 -21t-41 -58h207q-11 39 -38 59
t-63 20z" />
    <glyph glyph-name="eacute" unicode="&#xe9;" horiz-adv-x="575" 
d="M365 567h-142l71 152h190zM550 251v-41h-368q10 -45 39 -71t69 -26q75 0 107 58l142 -29q-32 -78 -96.5 -117.5t-152.5 -39.5q-111 0 -188 74.5t-77 191.5q0 116 77 191t189 75q109 0 183 -73t76 -193zM291 387q-35 0 -65 -21t-41 -58h207q-11 39 -38 59t-63 20z" />
    <glyph glyph-name="ecircumflex" unicode="&#xea;" horiz-adv-x="575" 
d="M253 561h-154l115 155h159l116 -155h-155l-40 56zM550 251v-41h-368q10 -45 39 -71t69 -26q75 0 107 58l142 -29q-32 -78 -96.5 -117.5t-152.5 -39.5q-111 0 -188 74.5t-77 191.5q0 116 77 191t189 75q109 0 183 -73t76 -193zM291 387q-35 0 -65 -21t-41 -58h207
q-11 39 -38 59t-63 20z" />
    <glyph glyph-name="edieresis" unicode="&#xeb;" horiz-adv-x="575" 
d="M179 556q-39 0 -64 24.5t-25 62.5q0 36 25.5 62t63.5 26t64 -26t26 -62q0 -38 -25.5 -62.5t-64.5 -24.5zM407 556q-39 0 -64 24.5t-25 62.5q0 36 25.5 62t63.5 26t64 -26t26 -62q0 -38 -25.5 -62.5t-64.5 -24.5zM550 251v-41h-368q10 -45 39 -71t69 -26q75 0 107 58
l142 -29q-32 -78 -96.5 -117.5t-152.5 -39.5q-111 0 -188 74.5t-77 191.5q0 116 77 191t189 75q109 0 183 -73t76 -193zM291 387q-35 0 -65 -21t-41 -58h207q-11 39 -38 59t-63 20z" />
    <glyph glyph-name="igrave" unicode="&#xec;" horiz-adv-x="297" 
d="M151 719l71 -152h-142l-119 152h190zM228 0h-159v502h159v-502z" />
    <glyph glyph-name="iacute" unicode="&#xed;" horiz-adv-x="297" 
d="M221 567h-142l71 152h190zM228 0h-159v502h159v-502z" />
    <glyph glyph-name="icircumflex" unicode="&#xee;" horiz-adv-x="297" 
d="M108 561h-154l115 155h159l116 -155h-155l-40 56zM69 502h159v-502h-159v502z" />
    <glyph glyph-name="idieresis" unicode="&#xef;" horiz-adv-x="297" 
d="M35 731q38 0 64 -26t26 -62q0 -38 -25.5 -62.5t-64.5 -24.5t-64 24.5t-25 62.5q0 36 25.5 62t63.5 26zM263 731q38 0 64 -26t26 -62q0 -38 -25.5 -62.5t-64.5 -24.5t-64 24.5t-25 62.5q0 36 25.5 62t63.5 26zM228 0h-159v502h159v-502z" />
    <glyph glyph-name="eth" unicode="&#xf0;" horiz-adv-x="605" 
d="M477 643l-62 -24q165 -179 165 -366q0 -67 -24.5 -120t-64.5 -84.5t-87.5 -47.5t-98.5 -16q-116 0 -198 74.5t-82 191.5q0 118 71 192t181 74q31 0 59 -10q-24 28 -59 58l-133 -52l-36 87l75 29q-58 32 -130 60v31h242q16 -9 43 -30l103 41zM304 121q55 0 87.5 40
t32.5 92q0 54 -35 91t-86 37q-54 0 -89 -36.5t-35 -93.5q0 -56 36.5 -93t88.5 -37z" />
    <glyph glyph-name="ntilde" unicode="&#xf1;" horiz-adv-x="618" 
d="M266 612q-26 0 -31 -33h-97q0 76 34 114t81 38q35 0 69 -18.5t52 -18.5q26 0 31 36h97q0 -78 -33.5 -116t-82.5 -38q-35 0 -68.5 18t-51.5 18zM372 517q88 0 141.5 -57.5t53.5 -151.5v-308h-159v274q0 44 -24 71.5t-62 27.5q-49 0 -76.5 -34.5t-27.5 -105.5v-233h-160
v502h160v-48q60 63 154 63z" />
    <glyph glyph-name="ograve" unicode="&#xf2;" horiz-adv-x="603" 
d="M234 567l-119 152h190l71 -152h-142zM303 515q115 0 195 -74t80 -190q0 -117 -80 -191t-195 -74q-117 0 -197.5 74t-80.5 191q0 116 80.5 190t197.5 74zM303 121q49 0 85 36.5t36 93.5t-36.5 93.5t-84.5 36.5q-50 0 -87 -36.5t-37 -93.5t36.5 -93.5t87.5 -36.5z" />
    <glyph glyph-name="oacute" unicode="&#xf3;" horiz-adv-x="603" 
d="M375 567h-142l71 152h190zM303 515q115 0 195 -74t80 -190q0 -117 -80 -191t-195 -74q-117 0 -197.5 74t-80.5 191q0 116 80.5 190t197.5 74zM303 121q49 0 85 36.5t36 93.5t-36.5 93.5t-84.5 36.5q-50 0 -87 -36.5t-37 -93.5t36.5 -93.5t87.5 -36.5z" />
    <glyph glyph-name="ocircumflex" unicode="&#xf4;" horiz-adv-x="603" 
d="M262 561h-154l115 155h159l116 -155h-155l-40 56zM303 515q115 0 195 -74t80 -190q0 -117 -80 -191t-195 -74q-117 0 -197.5 74t-80.5 191q0 116 80.5 190t197.5 74zM303 121q49 0 85 36.5t36 93.5t-36.5 93.5t-84.5 36.5q-50 0 -87 -36.5t-37 -93.5t36.5 -93.5
t87.5 -36.5z" />
    <glyph glyph-name="otilde" unicode="&#xf5;" horiz-adv-x="603" 
d="M256 612q-26 0 -31 -33h-97q0 76 34 114t81 38q35 0 69 -18.5t52 -18.5q26 0 31 36h97q0 -78 -33.5 -116t-82.5 -38q-35 0 -68.5 18t-51.5 18zM303 515q115 0 195 -74t80 -190q0 -117 -80 -191t-195 -74q-117 0 -197.5 74t-80.5 191q0 116 80.5 190t197.5 74zM303 121
q49 0 85 36.5t36 93.5t-36.5 93.5t-84.5 36.5q-50 0 -87 -36.5t-37 -93.5t36.5 -93.5t87.5 -36.5z" />
    <glyph glyph-name="odieresis" unicode="&#xf6;" horiz-adv-x="603" 
d="M189 556q-39 0 -64 24.5t-25 62.5q0 36 25.5 62t63.5 26t64 -26t26 -62q0 -38 -25.5 -62.5t-64.5 -24.5zM417 556q-39 0 -64 24.5t-25 62.5q0 36 25.5 62t63.5 26t64 -26t26 -62q0 -38 -25.5 -62.5t-64.5 -24.5zM303 515q115 0 195 -74t80 -190q0 -117 -80 -191t-195 -74
q-117 0 -197.5 74t-80.5 191q0 116 80.5 190t197.5 74zM303 121q49 0 85 36.5t36 93.5t-36.5 93.5t-84.5 36.5q-50 0 -87 -36.5t-37 -93.5t36.5 -93.5t87.5 -36.5z" />
    <glyph glyph-name="divide" unicode="&#xf7;" horiz-adv-x="573" 
d="M284 583q37 0 61.5 -25t24.5 -59q0 -36 -24.5 -60t-61.5 -24t-61.5 24t-24.5 60q0 34 24.5 59t61.5 25zM523 248h-473v131h473v-131zM284 215q37 0 61.5 -25t24.5 -59q0 -36 -24.5 -60t-61.5 -24t-61.5 24t-24.5 60q0 34 24.5 59t61.5 25z" />
    <glyph glyph-name="oslash" unicode="&#xf8;" horiz-adv-x="603" 
d="M573 458l-48 -48q53 -67 53 -159q0 -117 -80 -191t-195 -74q-87 0 -158 44l-52 -52l-64 64l49 49q-53 69 -53 160q0 116 80.5 190t197.5 74q86 0 155 -44l51 51zM179 251q0 -27 9 -50l167 167q-23 13 -52 13q-50 0 -87 -36.5t-37 -93.5zM303 121q49 0 85 36.5t36 93.5
q0 25 -8 49l-167 -166q25 -13 54 -13z" />
    <glyph glyph-name="ugrave" unicode="&#xf9;" horiz-adv-x="618" 
d="M238 567l-119 152h190l71 -152h-142zM560 502v-502h-160v48q-60 -63 -154 -63q-88 0 -141.5 57.5t-53.5 151.5v308h159v-274q0 -44 24 -71.5t62 -27.5q49 0 76.5 34.5t27.5 105.5v233h160z" />
    <glyph glyph-name="uacute" unicode="&#xfa;" horiz-adv-x="618" 
d="M380 567h-142l71 152h190zM560 502v-502h-160v48q-60 -63 -154 -63q-88 0 -141.5 57.5t-53.5 151.5v308h159v-274q0 -44 24 -71.5t62 -27.5q49 0 76.5 34.5t27.5 105.5v233h160z" />
    <glyph glyph-name="ucircumflex" unicode="&#xfb;" horiz-adv-x="618" 
d="M267 561h-154l115 155h159l116 -155h-155l-40 56zM560 502v-502h-160v48q-60 -63 -154 -63q-88 0 -141.5 57.5t-53.5 151.5v308h159v-274q0 -44 24 -71.5t62 -27.5q49 0 76.5 34.5t27.5 105.5v233h160z" />
    <glyph glyph-name="udieresis" unicode="&#xfc;" horiz-adv-x="618" 
d="M193 556q-39 0 -64 24.5t-25 62.5q0 36 25.5 62t63.5 26t64 -26t26 -62q0 -38 -25.5 -62.5t-64.5 -24.5zM421 556q-39 0 -64 24.5t-25 62.5q0 36 25.5 62t63.5 26t64 -26t26 -62q0 -38 -25.5 -62.5t-64.5 -24.5zM560 502v-502h-160v48q-60 -63 -154 -63
q-88 0 -141.5 57.5t-53.5 151.5v308h159v-274q0 -44 24 -71.5t62 -27.5q49 0 76.5 34.5t27.5 105.5v233h160z" />
    <glyph glyph-name="yacute" unicode="&#xfd;" horiz-adv-x="604" 
d="M379 567h-142l71 152h190zM597 503l-320 -743h-173l111 257l-208 486h172l119 -294l127 294h172z" />
    <glyph glyph-name="thorn" unicode="&#xfe;" horiz-adv-x="644" 
d="M374 517q102 0 173.5 -75t71.5 -191q0 -117 -71.5 -191.5t-173.5 -74.5q-96 0 -156 58v-283h-160v960h160v-261q60 58 156 58zM341 121q53 0 87 36t34 94q0 57 -34 93.5t-87 36.5q-50 0 -86.5 -37t-36.5 -93q0 -57 36.5 -93.5t86.5 -36.5z" />
    <glyph glyph-name="ydieresis" unicode="&#xff;" horiz-adv-x="604" 
d="M193 556q-39 0 -64 24.5t-25 62.5q0 36 25.5 62t63.5 26t64 -26t26 -62q0 -38 -25.5 -62.5t-64.5 -24.5zM421 556q-39 0 -64 24.5t-25 62.5q0 36 25.5 62t63.5 26t64 -26t26 -62q0 -38 -25.5 -62.5t-64.5 -24.5zM597 503l-320 -743h-173l111 257l-208 486h172l119 -294
l127 294h172z" />
    <glyph glyph-name="Amacron" unicode="&#x100;" horiz-adv-x="729" 
d="M531 738h-332v124h332v-124zM729 0h-176l-47 122h-282l-47 -122h-177l280 670h169zM451 264l-86 220l-85 -220h171z" />
    <glyph glyph-name="amacron" unicode="&#x101;" horiz-adv-x="556" 
d="M449 570h-332v124h332v-124zM284 517q107 0 168.5 -52t61.5 -147v-318h-154v37q-61 -52 -150 -52q-84 0 -135.5 45t-51.5 119q0 75 55 118.5t154 43.5h128v10q0 31 -19.5 50.5t-51.5 19.5q-73 0 -84 -63l-151 31q17 73 78.5 115.5t151.5 42.5zM255 105q43 0 74 26t31 67
v11h-110q-30 0 -47.5 -14.5t-17.5 -37.5q0 -24 19 -38t51 -14z" />
    <glyph glyph-name="Abreve" unicode="&#x102;" horiz-adv-x="729" 
d="M365 718q-81 0 -129.5 43t-48.5 115h126q0 -22 15 -36.5t37 -14.5q23 0 37.5 14.5t14.5 36.5h126q0 -72 -48.5 -115t-129.5 -43zM729 0h-176l-47 122h-282l-47 -122h-177l280 670h169zM451 264l-86 220l-85 -220h171z" />
    <glyph glyph-name="abreve" unicode="&#x103;" horiz-adv-x="556" 
d="M283 550q-81 0 -129.5 43t-48.5 115h126q0 -22 15 -36.5t37 -14.5q23 0 37.5 14.5t14.5 36.5h126q0 -72 -48.5 -115t-129.5 -43zM284 517q107 0 168.5 -52t61.5 -147v-318h-154v37q-61 -52 -150 -52q-84 0 -135.5 45t-51.5 119q0 75 55 118.5t154 43.5h128v10
q0 31 -19.5 50.5t-51.5 19.5q-73 0 -84 -63l-151 31q17 73 78.5 115.5t151.5 42.5zM255 105q43 0 74 26t31 67v11h-110q-30 0 -47.5 -14.5t-17.5 -37.5q0 -24 19 -38t51 -14z" />
    <glyph glyph-name="Aogonek" unicode="&#x104;" horiz-adv-x="729" 
d="M747 -100l6 -91q-46 -22 -93 -22q-45 0 -73.5 24.5t-28.5 68.5q0 64 67 120h-72l-47 122h-282l-47 -122h-177l280 670h169l280 -670q-6 -7 -16.5 -18t-14 -15.5t-10.5 -12.5t-9 -12l-5 -8q-3 -6 -4 -10.5t-1 -9.5q0 -24 28 -24q17 0 50 10zM451 264l-86 220l-85 -220h171
z" />
    <glyph glyph-name="aogonek" unicode="&#x105;" horiz-adv-x="556" 
d="M531 -100l6 -91q-46 -22 -93 -22q-45 0 -73.5 24.5t-28.5 68.5q0 64 67 120h-49v37q-61 -52 -150 -52q-84 0 -135.5 45t-51.5 119q0 75 55 118.5t154 43.5h128v10q0 31 -19.5 50.5t-51.5 19.5q-73 0 -84 -63l-151 31q17 73 78.5 115.5t151.5 42.5q107 0 168.5 -52
t61.5 -147v-318h-1q-6 -7 -16.5 -18t-14 -15.5t-10.5 -12.5t-9 -12l-5 -8q-3 -6 -4 -10.5t-1 -9.5q0 -24 28 -24q17 0 50 10zM255 105q43 0 74 26t31 67v11h-110q-30 0 -47.5 -14.5t-17.5 -37.5q0 -24 19 -38t51 -14z" />
    <glyph glyph-name="Cacute" unicode="&#x106;" horiz-adv-x="764" 
d="M463 735h-142l71 152h190zM567 286l162 -35q-23 -124 -115 -195t-223 -71q-149 0 -252.5 101t-103.5 249q0 147 103.5 248.5t252.5 101.5q126 0 219.5 -70t117.5 -187l-162 -41q-15 73 -61.5 110t-113.5 37q-80 0 -135.5 -57t-55.5 -142t55.5 -142.5t135.5 -57.5
q66 0 112.5 38t63.5 113z" />
    <glyph glyph-name="cacute" unicode="&#x107;" horiz-adv-x="580" 
d="M371 567h-142l71 152h190zM299 125q84 0 109 88l147 -32q-19 -88 -90 -142t-166 -54q-115 0 -194.5 74.5t-79.5 191.5q0 116 79.5 191t194.5 75q93 0 164 -53t92 -140l-150 -36q-10 44 -38 66.5t-68 22.5q-54 0 -87 -35.5t-33 -90.5q0 -56 33 -91t87 -35z" />
    <glyph glyph-name="Cdotaccent" unicode="&#x10a;" horiz-adv-x="764" 
d="M390 732q-39 0 -64 25t-25 63q0 36 25.5 61.5t63.5 25.5t64 -25.5t26 -61.5q0 -38 -25.5 -63t-64.5 -25zM567 286l162 -35q-23 -124 -115 -195t-223 -71q-149 0 -252.5 101t-103.5 249q0 147 103.5 248.5t252.5 101.5q126 0 219.5 -70t117.5 -187l-162 -41
q-15 73 -61.5 110t-113.5 37q-80 0 -135.5 -57t-55.5 -142t55.5 -142.5t135.5 -57.5q66 0 112.5 38t63.5 113z" />
    <glyph glyph-name="cdotaccent" unicode="&#x10b;" horiz-adv-x="580" 
d="M298 564q-39 0 -64 25t-25 63q0 36 25.5 61.5t63.5 25.5t64 -25.5t26 -61.5q0 -38 -25.5 -63t-64.5 -25zM299 125q84 0 109 88l147 -32q-19 -88 -90 -142t-166 -54q-115 0 -194.5 74.5t-79.5 191.5q0 116 79.5 191t194.5 75q93 0 164 -53t92 -140l-150 -36
q-10 44 -38 66.5t-68 22.5q-54 0 -87 -35.5t-33 -90.5q0 -56 33 -91t87 -35z" />
    <glyph glyph-name="Ccaron" unicode="&#x10c;" horiz-adv-x="764" 
d="M311 729l-115 155h154l41 -56l40 56h155l-116 -155h-159zM567 286l162 -35q-23 -124 -115 -195t-223 -71q-149 0 -252.5 101t-103.5 249q0 147 103.5 248.5t252.5 101.5q126 0 219.5 -70t117.5 -187l-162 -41q-15 73 -61.5 110t-113.5 37q-80 0 -135.5 -57t-55.5 -142
t55.5 -142.5t135.5 -57.5q66 0 112.5 38t63.5 113z" />
    <glyph glyph-name="ccaron" unicode="&#x10d;" horiz-adv-x="580" 
d="M219 561l-115 155h154l41 -56l40 56h155l-116 -155h-159zM299 125q84 0 109 88l147 -32q-19 -88 -90 -142t-166 -54q-115 0 -194.5 74.5t-79.5 191.5q0 116 79.5 191t194.5 75q93 0 164 -53t92 -140l-150 -36q-10 44 -38 66.5t-68 22.5q-54 0 -87 -35.5t-33 -90.5
q0 -56 33 -91t87 -35z" />
    <glyph glyph-name="Dcaron" unicode="&#x10e;" horiz-adv-x="725" 
d="M273 729l-115 155h154l41 -56l40 56h155l-116 -155h-159zM58 670h265q165 0 266 -92.5t101 -242.5t-101 -242.5t-266 -92.5h-265v670zM223 143h94q94 0 150.5 52.5t56.5 139.5t-56.5 139.5t-150.5 52.5h-94v-384z" />
    <glyph glyph-name="dcaron" unicode="&#x10f;" horiz-adv-x="644" 
d="M426 770h160v-770h-160v43q-60 -58 -156 -58q-102 0 -173.5 74.5t-71.5 191.5q0 116 71.5 191t173.5 75q96 0 156 -58v311zM789 770l-35 -199h-116v199h151zM303 121q50 0 86.5 36.5t36.5 93.5q0 56 -36.5 93t-86.5 37q-53 0 -87 -36.5t-34 -93.5q0 -58 34 -94t87 -36z
" />
    <glyph glyph-name="Dcroat" unicode="&#x110;" horiz-adv-x="733" 
d="M77 670h265q165 0 265.5 -92.5t100.5 -242.5t-100.5 -242.5t-265.5 -92.5h-265v263h-54v144h54v263zM241 143h94q94 0 151 52.5t57 139.5t-57 139.5t-151 52.5h-94v-120h113v-144h-113v-120z" />
    <glyph glyph-name="dcroat" unicode="&#x111;" horiz-adv-x="668" 
d="M642 554h-56v-554h-160v43q-60 -58 -156 -58q-102 0 -173.5 74.5t-71.5 191.5q0 116 71.5 191t173.5 75q96 0 156 -58v95h-128v119h128v97h160v-97h56v-119zM303 121q50 0 86.5 36.5t36.5 93.5q0 56 -36.5 93t-86.5 37q-53 0 -87 -36.5t-34 -93.5q0 -58 34 -94t87 -36z
" />
    <glyph glyph-name="Emacron" unicode="&#x112;" horiz-adv-x="625" 
d="M494 738h-332v124h332v-124zM580 142v-142h-522v670h519v-142h-354v-126h325v-134h-325v-126h357z" />
    <glyph glyph-name="emacron" unicode="&#x113;" horiz-adv-x="575" 
d="M459 570h-332v124h332v-124zM550 251v-41h-368q10 -45 39 -71t69 -26q75 0 107 58l142 -29q-32 -78 -96.5 -117.5t-152.5 -39.5q-111 0 -188 74.5t-77 191.5q0 116 77 191t189 75q109 0 183 -73t76 -193zM291 387q-35 0 -65 -21t-41 -58h207q-11 39 -38 59t-63 20z" />
    <glyph glyph-name="Edotaccent" unicode="&#x116;" horiz-adv-x="625" 
d="M327 732q-39 0 -64 25t-25 63q0 36 25.5 61.5t63.5 25.5t64 -25.5t26 -61.5q0 -38 -25.5 -63t-64.5 -25zM580 142v-142h-522v670h519v-142h-354v-126h325v-134h-325v-126h357z" />
    <glyph glyph-name="edotaccent" unicode="&#x117;" horiz-adv-x="575" 
d="M292 564q-39 0 -64 25t-25 63q0 36 25.5 61.5t63.5 25.5t64 -25.5t26 -61.5q0 -38 -25.5 -63t-64.5 -25zM550 251v-41h-368q10 -45 39 -71t69 -26q75 0 107 58l142 -29q-32 -78 -96.5 -117.5t-152.5 -39.5q-111 0 -188 74.5t-77 191.5q0 116 77 191t189 75q109 0 183 -73
t76 -193zM291 387q-35 0 -65 -21t-41 -58h207q-11 39 -38 59t-63 20z" />
    <glyph glyph-name="Eogonek" unicode="&#x118;" horiz-adv-x="625" 
d="M580 0h-29q-6 -7 -16.5 -18t-14 -15.5t-10.5 -12.5t-9 -11l-5 -9q-3 -6 -4 -10.5t-1 -9.5q0 -24 28 -24q17 0 50 10l6 -91q-46 -22 -93 -22q-45 0 -73.5 24.5t-28.5 68.5q0 64 67 120h-389v670h519v-142h-354v-126h325v-134h-325v-126h357v-142z" />
    <glyph glyph-name="eogonek" unicode="&#x119;" horiz-adv-x="575" 
d="M550 210h-368q9 -46 38 -71.5t70 -25.5q76 0 107 58l142 -29q-16 -34 -72 -92q-41 -40 -61 -69t-20 -61q0 -30 32 -30q17 0 50 10l6 -85q-45 -29 -96 -29q-49 0 -78.5 25t-29.5 67q0 55 40 108l-20 -1q-111 0 -188 74.5t-77 191.5q0 116 77 191t188 75t185.5 -75
t74.5 -198v-34zM183 308h207q-17 79 -100 79q-35 0 -65.5 -21t-41.5 -58z" />
    <glyph glyph-name="Ecaron" unicode="&#x11a;" horiz-adv-x="625" 
d="M249 729l-115 155h154l41 -56l40 56h155l-116 -155h-159zM580 142v-142h-522v670h519v-142h-354v-126h325v-134h-325v-126h357z" />
    <glyph glyph-name="ecaron" unicode="&#x11b;" horiz-adv-x="575" 
d="M214 561l-115 155h154l41 -56l40 56h155l-116 -155h-159zM550 251v-41h-368q10 -45 39 -71t69 -26q75 0 107 58l142 -29q-32 -78 -96.5 -117.5t-152.5 -39.5q-111 0 -188 74.5t-77 191.5q0 116 77 191t189 75q109 0 183 -73t76 -193zM291 387q-35 0 -65 -21t-41 -58h207
q-11 39 -38 59t-63 20z" />
    <glyph glyph-name="Gbreve" unicode="&#x11e;" horiz-adv-x="778" 
d="M398 718q-81 0 -129.5 43t-48.5 115h126q0 -22 15 -36.5t37 -14.5q23 0 37.5 14.5t14.5 36.5h126q0 -72 -48.5 -115t-129.5 -43zM370 395h369q4 -32 4 -61q0 -152 -98 -250.5t-249 -98.5q-152 0 -256.5 101t-104.5 249q0 147 103.5 248.5t254.5 101.5q115 0 204 -52.5
t123 -148.5l-159 -46q-49 96 -168 96q-82 0 -137 -57t-55 -142t56.5 -142.5t140.5 -57.5q65 0 111.5 32t65.5 88h-205v140z" />
    <glyph glyph-name="gbreve" unicode="&#x11f;" horiz-adv-x="644" 
d="M313 550q-81 0 -129.5 43t-48.5 115h126q0 -22 15 -36.5t37 -14.5q23 0 37.5 14.5t14.5 36.5h126q0 -72 -48.5 -115t-129.5 -43zM586 502v-512q0 -112 -84 -176t-211 -64q-178 0 -251 121l133 82q28 -34 54 -48t64 -14q58 0 96.5 29.5t38.5 85.5v37q-60 -58 -156 -58
q-102 0 -173.5 74.5t-71.5 191.5q0 116 71.5 191t173.5 75q96 0 156 -58v43h160zM303 121q50 0 86.5 36.5t36.5 93.5q0 56 -36.5 93t-86.5 37q-53 0 -87 -36.5t-34 -93.5q0 -58 34 -94t87 -36z" />
    <glyph glyph-name="Gdotaccent" unicode="&#x120;" horiz-adv-x="778" 
d="M397 732q-39 0 -64 25t-25 63q0 36 25.5 61.5t63.5 25.5t64 -25.5t26 -61.5q0 -38 -25.5 -63t-64.5 -25zM370 395h369q4 -32 4 -61q0 -152 -98 -250.5t-249 -98.5q-152 0 -256.5 101t-104.5 249q0 147 103.5 248.5t254.5 101.5q115 0 204 -52.5t123 -148.5l-159 -46
q-49 96 -168 96q-82 0 -137 -57t-55 -142t56.5 -142.5t140.5 -57.5q65 0 111.5 32t65.5 88h-205v140z" />
    <glyph glyph-name="gdotaccent" unicode="&#x121;" horiz-adv-x="644" 
d="M312 564q-39 0 -64 25t-25 63q0 36 25.5 61.5t63.5 25.5t64 -25.5t26 -61.5q0 -38 -25.5 -63t-64.5 -25zM586 502v-512q0 -112 -84 -176t-211 -64q-178 0 -251 121l133 82q28 -34 54 -48t64 -14q58 0 96.5 29.5t38.5 85.5v37q-60 -58 -156 -58q-102 0 -173.5 74.5
t-71.5 191.5q0 116 71.5 191t173.5 75q96 0 156 -58v43h160zM303 121q50 0 86.5 36.5t36.5 93.5q0 56 -36.5 93t-86.5 37q-53 0 -87 -36.5t-34 -93.5q0 -58 34 -94t87 -36z" />
    <glyph glyph-name="Gcommaaccent" unicode="&#x122;" horiz-adv-x="778" 
d="M370 395h369q4 -32 4 -61q0 -152 -98 -250.5t-249 -98.5q-152 0 -256.5 101t-104.5 249q0 147 103.5 248.5t254.5 101.5q115 0 204 -52.5t123 -148.5l-159 -46q-49 96 -168 96q-82 0 -137 -57t-55 -142t56.5 -142.5t140.5 -57.5q65 0 111.5 32t65.5 88h-205v140zM311 -45
h162l-99 -157h-114z" />
    <glyph glyph-name="gcommaaccent" unicode="&#x123;" horiz-adv-x="633" 
d="M404 564h-163l99 157h115zM586 502v-512q0 -112 -84 -176t-211 -64q-178 0 -251 121l133 82q28 -34 54 -48t64 -14q58 0 96.5 29.5t38.5 85.5v37q-60 -58 -156 -58q-102 0 -173.5 74.5t-71.5 191.5q0 116 71.5 191t173.5 75q96 0 156 -58v43h160zM303 121q50 0 86.5 36.5
t36.5 93.5q0 56 -36.5 93t-86.5 37q-53 0 -87 -36.5t-34 -93.5q0 -58 34 -94t87 -36z" />
    <glyph glyph-name="Hbar" unicode="&#x126;" horiz-adv-x="764" 
d="M738 439h-54v-439h-165v221h-277v-221h-164v439h-55v127h55v104h164v-104h277v104h165v-104h54v-127zM519 439h-277v-81h277v81z" />
    <glyph glyph-name="hbar" unicode="&#x127;" horiz-adv-x="637" 
d="M391 517q88 0 141.5 -57.5t53.5 -151.5v-308h-160v274q0 44 -23.5 71.5t-62.5 27.5q-49 0 -76.5 -34.5t-27.5 -105.5v-233h-159v556h-54v109h54v105h159v-105h132v-109h-132v-103q61 64 155 64z" />
    <glyph glyph-name="Imacron" unicode="&#x12a;" horiz-adv-x="458" 
d="M395 738h-332v124h332v-124zM311 526v-382h127v-144h-418v144h127v382h-127v144h418v-144h-127z" />
    <glyph glyph-name="imacron" unicode="&#x12b;" horiz-adv-x="297" 
d="M315 570h-332v124h332v-124zM228 0h-159v502h159v-502z" />
    <glyph glyph-name="Iogonek" unicode="&#x12e;" horiz-adv-x="458" 
d="M311 526v-382h127v-144h-127q-6 -7 -16.5 -18t-14 -15.5t-10.5 -12.5t-9 -11l-5 -9q-3 -6 -4 -10.5t-1 -9.5q0 -24 28 -24q17 0 50 10l6 -91q-46 -22 -93 -22q-45 0 -73.5 24.5t-28.5 68.5q0 64 67 120h-187v144h127v382h-127v144h418v-144h-127z" />
    <glyph glyph-name="iogonek" unicode="&#x12f;" horiz-adv-x="297" 
d="M148 564q-39 0 -64 25t-25 63q0 36 25.5 61.5t63.5 25.5t64 -25.5t26 -61.5q0 -38 -25.5 -63t-64.5 -25zM246 -100l6 -91q-46 -22 -93 -22q-45 0 -73.5 24.5t-28.5 68.5q0 64 67 120h-55v502h159v-502q-6 -7 -16.5 -18t-14 -15.5t-10.5 -12.5t-9 -12l-5 -8
q-3 -6 -4 -10.5t-1 -9.5q0 -24 28 -24q17 0 50 10z" />
    <glyph glyph-name="Idotaccent" unicode="&#x130;" horiz-adv-x="458" 
d="M228 732q-39 0 -64 25t-25 63q0 36 25.5 61.5t63.5 25.5t64 -25.5t26 -61.5q0 -38 -25.5 -63t-64.5 -25zM311 526v-382h127v-144h-418v144h127v382h-127v144h418v-144h-127z" />
    <glyph glyph-name="dotlessi" unicode="&#x131;" horiz-adv-x="297" 
d="M228 0h-159v502h159v-502z" />
    <glyph glyph-name="IJ" unicode="&#x132;" horiz-adv-x="1066" 
d="M438 670v-144h-127v-382h127v-144h-418v144h127v382h-127v144h418zM1010 670v-429q0 -113 -74.5 -184.5t-195.5 -71.5q-112 0 -182.5 61t-85.5 164l160 32q5 -52 33 -81t75 -29t76 30.5t29 78.5v285h-207v144h372z" />
    <glyph glyph-name="ij" unicode="&#x133;" horiz-adv-x="596" 
d="M146 741q40 0 66.5 -27t26.5 -64q0 -38 -26.5 -63.5t-66.5 -25.5t-66 25.5t-26 63.5t26 64.5t66 26.5zM449 741q40 0 66.5 -27t26.5 -64q0 -38 -26.5 -63.5t-66.5 -25.5t-66 25.5t-26 63.5t26 64.5t66 26.5zM226 0h-160v502h160v-502zM265 -229l24 126q26 -8 40 -8
q19 0 30.5 11t11.5 29v573h159v-591q0 -73 -43.5 -117t-116.5 -44q-53 0 -105 21z" />
    <glyph glyph-name="Kcommaaccent" unicode="&#x136;" horiz-adv-x="714" 
d="M717 0h-200l-176 256l-118 -141v-115h-165v670h165v-331l279 331h187l-241 -287zM290 -45h162l-99 -157h-114z" />
    <glyph glyph-name="kcommaaccent" unicode="&#x137;" horiz-adv-x="622" 
d="M625 0h-197l-134 171l-76 -86v-85h-160v770h160v-469l181 201h187l-185 -210zM247 -45h162l-99 -157h-114z" />
    <glyph glyph-name="Lacute" unicode="&#x139;" horiz-adv-x="587" 
d="M214 735h-142l71 152h190zM553 144v-144h-495v670h165v-526h330z" />
    <glyph glyph-name="lacute" unicode="&#x13a;" horiz-adv-x="339" 
d="M204 835h-142l71 152h190zM211 770v-599q0 -20 13 -32t35 -12q18 0 58 14l25 -125q-64 -31 -118 -31q-78 0 -125.5 48t-47.5 126v611h160z" />
    <glyph glyph-name="Lcommaaccent" unicode="&#x13b;" horiz-adv-x="587" 
d="M553 144v-144h-495v670h165v-526h330zM221 -45h162l-99 -157h-114z" />
    <glyph glyph-name="lcommaaccent" unicode="&#x13c;" horiz-adv-x="339" 
d="M211 770v-599q0 -20 13 -32t35 -12q18 0 58 14l25 -125q-64 -31 -118 -31q-78 0 -125.5 48t-47.5 126v611h160zM67 -202l51 157h162l-99 -157h-114z" />
    <glyph glyph-name="Lcaron" unicode="&#x13d;" horiz-adv-x="587" 
d="M553 144v-144h-495v670h165v-526h330zM422 471h-115v199h150z" />
    <glyph glyph-name="lcaron" unicode="&#x13e;" horiz-adv-x="339" 
d="M211 770v-599q0 -20 13 -32t35 -12q18 0 58 14l25 -125q-64 -31 -118 -31q-78 0 -125.5 48t-47.5 126v611h160zM370 571h-115v199h150z" />
    <glyph glyph-name="Ldot" unicode="&#x13f;" horiz-adv-x="590" 
d="M553 144v-144h-495v670h165v-526h330zM415 271q-40 0 -65 25t-25 63q0 36 25.5 62t64.5 26q38 0 64 -26t26 -62q0 -38 -25.5 -63t-64.5 -25z" />
    <glyph glyph-name="ldot" unicode="&#x140;" horiz-adv-x="442" 
d="M217 770v-599q0 -20 13.5 -32t35.5 -12q18 0 57 14l26 -125q-2 -1 -9.5 -4.5t-11.5 -4.5l-10 -5q-7 -3 -12 -4l-12 -4q-7 -3 -13.5 -4t-14.5 -2.5t-17 -2t-18 -0.5q-78 0 -125.5 48t-47.5 126v611h159zM348 447q38 0 64 -26t26 -62q0 -38 -25.5 -63t-64.5 -25t-64 25
t-25 63q0 36 25.5 62t63.5 26z" />
    <glyph glyph-name="Lslash" unicode="&#x141;" horiz-adv-x="605" 
d="M573 144v-144h-495v218l-55 -25v143l55 25v309h165v-234l109 50v-143l-109 -50v-149h330z" />
    <glyph glyph-name="lslash" unicode="&#x142;" horiz-adv-x="364" 
d="M342 141l26 -125q-2 -1 -9.5 -4.5t-11.5 -4.5l-10 -5q-7 -3 -12 -4l-12 -4q-7 -3 -13.5 -4t-14.5 -2.5t-17 -2t-18 -0.5q-78 0 -125.5 48t-47.5 126v76l-54 -29v150l54 29v385h159v-298l63 34v-150l-63 -34v-151q0 -20 13.5 -32t35.5 -12q19 0 57 14z" />
    <glyph glyph-name="Nacute" unicode="&#x143;" horiz-adv-x="757" 
d="M454 735h-142l71 152h190zM698 670v-670h-136l-339 388v-388h-165v670h137l339 -400v400h164z" />
    <glyph glyph-name="nacute" unicode="&#x144;" horiz-adv-x="618" 
d="M385 567h-142l71 152h190zM372 517q88 0 141.5 -57.5t53.5 -151.5v-308h-159v274q0 44 -24 71.5t-62 27.5q-49 0 -76.5 -34.5t-27.5 -105.5v-233h-160v502h160v-48q60 63 154 63z" />
    <glyph glyph-name="Ncommaaccent" unicode="&#x145;" horiz-adv-x="757" 
d="M698 670v-670h-136l-339 388v-388h-165v670h137l339 -400v400h164zM318 -45h162l-99 -157h-114z" />
    <glyph glyph-name="ncommaaccent" unicode="&#x146;" horiz-adv-x="618" 
d="M372 517q88 0 141.5 -57.5t53.5 -151.5v-308h-159v274q0 44 -24 71.5t-62 27.5q-49 0 -76.5 -34.5t-27.5 -105.5v-233h-160v502h160v-48q60 63 154 63zM234 -45h162l-99 -157h-114z" />
    <glyph glyph-name="Ncaron" unicode="&#x147;" horiz-adv-x="757" 
d="M303 729l-115 155h154l41 -56l40 56h155l-116 -155h-159zM698 670v-670h-136l-339 388v-388h-165v670h137l339 -400v400h164z" />
    <glyph glyph-name="ncaron" unicode="&#x148;" horiz-adv-x="618" 
d="M233 561l-115 155h154l41 -56l40 56h155l-116 -155h-159zM372 517q88 0 141.5 -57.5t53.5 -151.5v-308h-159v274q0 44 -24 71.5t-62 27.5q-49 0 -76.5 -34.5t-27.5 -105.5v-233h-160v502h160v-48q60 63 154 63z" />
    <glyph glyph-name="Eng" unicode="&#x14a;" horiz-adv-x="737" 
d="M698 670v-764q0 -70 -44 -113t-116 -43q-57 0 -124 23l22 122q47 -9 61 -9q42 0 42 37v103l-316 362v-388h-165v670h137l339 -400v400h164z" />
    <glyph glyph-name="eng" unicode="&#x14b;" horiz-adv-x="619" 
d="M372 517q88 0 141.5 -57.5t53.5 -151.5v-402q0 -70 -44 -113t-116 -43q-61 0 -124 24l22 119q41 -11 61 -11q42 0 42 37v355q0 44 -24 71.5t-62 27.5q-49 0 -76.5 -34.5t-27.5 -105.5v-233h-160v502h160v-48q60 63 154 63z" />
    <glyph glyph-name="Omacron" unicode="&#x14c;" horiz-adv-x="784" 
d="M558 738h-332v124h332v-124zM392 685q150 0 253.5 -102t103.5 -249q0 -146 -103.5 -247.5t-253.5 -101.5t-253.5 101.5t-103.5 247.5q0 147 103.5 249t253.5 102zM392 136q82 0 137 56.5t55 141.5q0 86 -55 143t-137 57t-137 -57t-55 -143q0 -85 55 -141.5t137 -56.5z
" />
    <glyph glyph-name="omacron" unicode="&#x14d;" horiz-adv-x="603" 
d="M469 570h-332v124h332v-124zM303 515q115 0 195 -74t80 -190q0 -117 -80 -191t-195 -74q-117 0 -197.5 74t-80.5 191q0 116 80.5 190t197.5 74zM303 121q49 0 85 36.5t36 93.5t-36.5 93.5t-84.5 36.5q-50 0 -87 -36.5t-37 -93.5t36.5 -93.5t87.5 -36.5z" />
    <glyph glyph-name="Ohungarumlaut" unicode="&#x150;" horiz-adv-x="784" 
d="M356 735h-137l74 152h180zM420 735l74 152h183l-121 -152h-136zM392 685q150 0 253.5 -102t103.5 -249q0 -146 -103.5 -247.5t-253.5 -101.5t-253.5 101.5t-103.5 247.5q0 147 103.5 249t253.5 102zM392 136q82 0 137 56.5t55 141.5q0 86 -55 143t-137 57t-137 -57
t-55 -143q0 -85 55 -141.5t137 -56.5z" />
    <glyph glyph-name="ohungarumlaut" unicode="&#x151;" horiz-adv-x="603" 
d="M267 567h-137l74 152h180zM331 567l74 152h183l-121 -152h-136zM303 515q115 0 195 -74t80 -190q0 -117 -80 -191t-195 -74q-117 0 -197.5 74t-80.5 191q0 116 80.5 190t197.5 74zM303 121q49 0 85 36.5t36 93.5t-36.5 93.5t-84.5 36.5q-50 0 -87 -36.5t-37 -93.5
t36.5 -93.5t87.5 -36.5z" />
    <glyph glyph-name="OE" unicode="&#x152;" horiz-adv-x="1029" 
d="M984 142v-142h-565q-171 0 -277.5 94t-106.5 241t106.5 241t277.5 94h562v-142h-354v-126h325v-134h-325v-126h357zM462 142v386h-43q-103 0 -161 -53t-58 -140t58 -140t161 -53h43z" />
    <glyph glyph-name="oe" unicode="&#x153;" horiz-adv-x="974" 
d="M949 251v-41h-368q10 -45 39 -71t70 -26q74 0 106 58l143 -29q-32 -78 -96.5 -117.5t-152.5 -39.5q-113 0 -191 76q-78 -75 -196 -75q-117 0 -197.5 74t-80.5 191q0 116 80.5 190t197.5 74q118 0 196 -75q77 77 192 77q108 0 182 -73t76 -193zM691 387q-36 0 -66 -21
t-41 -58h207q-11 39 -38 59t-62 20zM303 121q49 0 85 36.5t36 93.5t-36.5 93.5t-84.5 36.5q-50 0 -87 -36.5t-37 -93.5t36.5 -93.5t87.5 -36.5z" />
    <glyph glyph-name="Racute" unicode="&#x154;" horiz-adv-x="679" 
d="M403 735h-142l71 152h190zM672 0h-199l-202 230h-48v-230h-165v670h339q109 0 175 -60.5t66 -158.5q0 -82 -47 -138.5t-129 -74.5zM223 368h156q44 0 70.5 22t26.5 59q0 36 -26.5 58t-70.5 22h-156v-161z" />
    <glyph glyph-name="racute" unicode="&#x155;" horiz-adv-x="437" 
d="M306 567h-142l71 152h190zM391 509q20 0 36 -4l-7 -160h-29q-173 0 -173 -188v-157h-160v502h160v-96q62 103 173 103z" />
    <glyph glyph-name="Rcommaaccent" unicode="&#x156;" horiz-adv-x="679" 
d="M672 0h-199l-202 230h-48v-230h-165v670h339q109 0 175 -60.5t66 -158.5q0 -82 -47 -138.5t-129 -74.5zM223 368h156q44 0 70.5 22t26.5 59q0 36 -26.5 58t-70.5 22h-156v-161zM269 -45h162l-99 -157h-114z" />
    <glyph glyph-name="rcommaaccent" unicode="&#x157;" horiz-adv-x="437" 
d="M391 509q20 0 36 -4l-7 -160h-29q-173 0 -173 -188v-157h-160v502h160v-96q62 103 173 103zM59 -45h162l-99 -157h-114z" />
    <glyph glyph-name="Rcaron" unicode="&#x158;" horiz-adv-x="679" 
d="M252 729l-115 155h154l41 -56l40 56h155l-116 -155h-159zM672 0h-199l-202 230h-48v-230h-165v670h339q109 0 175 -60.5t66 -158.5q0 -82 -47 -138.5t-129 -74.5zM223 368h156q44 0 70.5 22t26.5 59q0 36 -26.5 58t-70.5 22h-156v-161z" />
    <glyph glyph-name="rcaron" unicode="&#x159;" horiz-adv-x="437" 
d="M154 561l-115 155h154l41 -56l40 56h155l-116 -155h-159zM218 502v-96q62 103 173 103q20 0 36 -4l-7 -160h-29q-173 0 -173 -188v-157h-160v502h160z" />
    <glyph glyph-name="Sacute" unicode="&#x15a;" horiz-adv-x="646" 
d="M402 735h-142l71 152h190zM321 685q110 0 184 -51.5t93 -142.5l-162 -33q-9 45 -42 69.5t-75 24.5q-40 0 -65 -19.5t-25 -48.5q0 -44 54 -56l139 -31q184 -41 184 -195q0 -103 -79 -160t-197 -57q-117 0 -198.5 53.5t-94.5 149.5l170 33q24 -99 132 -99q46 0 72.5 19
t26.5 50q0 24 -13.5 38t-48.5 21l-140 30q-180 41 -180 194q0 97 73 154t192 57z" />
    <glyph glyph-name="sacute" unicode="&#x15b;" horiz-adv-x="515" 
d="M344 567h-142l71 152h190zM24 131l156 32q10 -59 89 -59q30 0 47.5 11.5t17.5 28.5q0 28 -50 37l-102 20q-146 27 -146 146q0 77 60 123.5t156 46.5q92 0 152.5 -39t75.5 -105l-146 -29q-4 25 -26.5 42t-57.5 17q-30 0 -43.5 -11.5t-13.5 -27.5q0 -27 38 -35l118 -24
q69 -15 104 -54.5t35 -96.5q0 -81 -63 -125t-165 -44q-95 0 -159.5 36.5t-76.5 109.5z" />
    <glyph glyph-name="Scedilla" unicode="&#x15e;" horiz-adv-x="646" 
d="M606 202q0 -88 -60 -143.5t-156 -69.5l-46 -149h-166l93 149q-95 12 -158.5 64t-75.5 135l170 33q24 -99 132 -99q46 0 72.5 19t26.5 50q0 24 -13.5 38t-48.5 21l-140 30q-180 41 -180 194q0 97 73 154t192 57q110 0 184 -51.5t93 -142.5l-162 -33q-9 45 -42 69.5
t-75 24.5q-40 0 -65 -19.5t-25 -48.5q0 -44 54 -56l139 -31q184 -41 184 -195z" />
    <glyph glyph-name="scedilla" unicode="&#x15f;" horiz-adv-x="515" 
d="M488 154q0 -66 -43 -108t-116 -55l-46 -151h-166l92 148q-75 9 -124.5 44.5t-60.5 98.5l156 32q10 -59 89 -59q30 0 47.5 11.5t17.5 28.5q0 28 -50 37l-102 20q-146 27 -146 146q0 77 60 123.5t156 46.5q92 0 152.5 -39t75.5 -105l-146 -29q-4 25 -26.5 42t-57.5 17
q-30 0 -43.5 -11.5t-13.5 -27.5q0 -27 38 -35l118 -24q69 -15 104 -54.5t35 -96.5z" />
    <glyph glyph-name="Scaron" unicode="&#x160;" horiz-adv-x="646" 
d="M250 729l-115 155h154l41 -56l40 56h155l-116 -155h-159zM283 428l139 -31q184 -41 184 -195q0 -103 -79 -160t-197 -57q-117 0 -198.5 53.5t-94.5 149.5l170 33q24 -99 132 -99q46 0 72.5 19t26.5 50q0 24 -13.5 38t-48.5 21l-140 30q-180 41 -180 194q0 97 73 154
t192 57q110 0 184 -51.5t93 -142.5l-162 -33q-9 45 -42 69.5t-75 24.5q-40 0 -65 -19.5t-25 -48.5q0 -44 54 -56z" />
    <glyph glyph-name="scaron" unicode="&#x161;" horiz-adv-x="515" 
d="M192 561l-115 155h154l41 -56l40 56h155l-116 -155h-159zM231 329l118 -24q69 -15 104 -54.5t35 -96.5q0 -81 -63 -125t-165 -44q-95 0 -159.5 36.5t-76.5 109.5l156 32q10 -59 89 -59q30 0 47.5 11.5t17.5 28.5q0 28 -50 37l-102 20q-146 27 -146 146q0 77 60 123.5
t156 46.5q92 0 152.5 -39t75.5 -105l-146 -29q-4 25 -26.5 42t-57.5 17q-30 0 -43.5 -11.5t-13.5 -27.5q0 -27 38 -35z" />
    <glyph glyph-name="tcedilla" unicode="&#x163;" horiz-adv-x="433" 
d="M393 148l37 -126q-57 -30 -107 -35l-45 -146h-166l98 156q-117 41 -117 188v190h-91v127h91v168h160v-168h148v-127h-148v-174q0 -73 67 -73q38 0 73 20z" />
    <glyph glyph-name="Tcaron" unicode="&#x164;" horiz-adv-x="638" 
d="M240 729l-115 155h154l41 -56l40 56h155l-116 -155h-159zM618 526h-217v-526h-164v526h-217v144h598v-144z" />
    <glyph glyph-name="tcaron" unicode="&#x165;" horiz-adv-x="433" 
d="M417 556h-115v199h150zM320 128q38 0 73 20l37 -126q-69 -37 -137 -37q-95 0 -147.5 51t-52.5 149v190h-91v127h91v168h160v-168h148v-127h-148v-174q0 -73 67 -73z" />
    <glyph glyph-name="Tbar" unicode="&#x166;" horiz-adv-x="638" 
d="M401 526v-135h114v-131h-114v-260h-164v260h-114v131h114v135h-217v144h598v-144h-217z" />
    <glyph glyph-name="tbar" unicode="&#x167;" horiz-adv-x="433" 
d="M394 152l22 -133q-58 -34 -127 -34q-95 0 -147.5 51t-52.5 149v45h-61v112h61v43h-87v117h87v168h159v-168h149v-117h-149v-43h103v-112h-103v-29q0 -73 67 -73q37 0 79 24z" />
    <glyph glyph-name="Umacron" unicode="&#x16a;" horiz-adv-x="713" 
d="M522 738h-332v124h332v-124zM657 670v-368q0 -144 -81.5 -230.5t-215.5 -86.5q-137 0 -220.5 86.5t-83.5 230.5v368h165v-368q0 -76 38 -120.5t101 -44.5q60 0 96 44.5t36 120.5v368h165z" />
    <glyph glyph-name="umacron" unicode="&#x16b;" horiz-adv-x="618" 
d="M473 570h-332v124h332v-124zM560 502v-502h-160v48q-60 -63 -154 -63q-88 0 -141.5 57.5t-53.5 151.5v308h159v-274q0 -44 24 -71.5t62 -27.5q49 0 76.5 34.5t27.5 105.5v233h160z" />
    <glyph glyph-name="Uring" unicode="&#x16e;" horiz-adv-x="713" 
d="M356 711q-53 0 -89.5 35.5t-36.5 86.5q0 52 36.5 87.5t89.5 35.5t89.5 -35.5t36.5 -87.5q0 -51 -36.5 -86.5t-89.5 -35.5zM356 873q-17 0 -29 -11.5t-12 -28.5q0 -16 12 -27.5t29 -11.5t29 11.5t12 27.5q0 17 -12 28.5t-29 11.5zM657 670v-368q0 -144 -81.5 -230.5
t-215.5 -86.5q-137 0 -220.5 86.5t-83.5 230.5v368h165v-368q0 -76 38 -120.5t101 -44.5q60 0 96 44.5t36 120.5v368h165z" />
    <glyph glyph-name="uring" unicode="&#x16f;" horiz-adv-x="618" 
d="M307 543q-53 0 -89.5 35.5t-36.5 86.5q0 52 36.5 87.5t89.5 35.5t89.5 -35.5t36.5 -87.5q0 -51 -36.5 -86.5t-89.5 -35.5zM307 705q-17 0 -29 -11.5t-12 -28.5q0 -16 12 -27.5t29 -11.5t29 11.5t12 27.5q0 17 -12 28.5t-29 11.5zM560 502v-502h-160v48q-60 -63 -154 -63
q-88 0 -141.5 57.5t-53.5 151.5v308h159v-274q0 -44 24 -71.5t62 -27.5q49 0 76.5 34.5t27.5 105.5v233h160z" />
    <glyph glyph-name="Uhungarumlaut" unicode="&#x170;" horiz-adv-x="713" 
d="M320 735h-137l74 152h180zM384 735l74 152h183l-121 -152h-136zM657 670v-368q0 -144 -81.5 -230.5t-215.5 -86.5q-137 0 -220.5 86.5t-83.5 230.5v368h165v-368q0 -76 38 -120.5t101 -44.5q60 0 96 44.5t36 120.5v368h165z" />
    <glyph glyph-name="uhungarumlaut" unicode="&#x171;" horiz-adv-x="618" 
d="M271 567h-137l74 152h180zM335 567l74 152h183l-121 -152h-136zM400 502h160v-502h-160v48q-60 -63 -154 -63q-88 0 -141.5 57.5t-53.5 151.5v308h159v-274q0 -44 24 -71.5t62 -27.5q49 0 76.5 34.5t27.5 105.5v233z" />
    <glyph glyph-name="Uogonek" unicode="&#x172;" horiz-adv-x="713" 
d="M556 52q-33 -31 -47 -46t-26 -37t-12 -45q0 -30 31 -30q14 0 56 14l25 -93q-63 -33 -124 -33q-48 0 -79.5 27t-31.5 69q0 58 47 109q-22 -2 -35 -2q-137 0 -220.5 84.5t-83.5 223.5v377h165v-377q0 -72 38 -114t101 -42q60 0 96 42t36 114v377h165v-377q0 -148 -101 -241
z" />
    <glyph glyph-name="uogonek" unicode="&#x173;" horiz-adv-x="618" 
d="M578 -100l6 -91q-46 -22 -93 -22q-45 0 -73.5 24.5t-28.5 68.5q0 64 67 120h-56v48q-60 -63 -154 -63q-88 0 -141.5 57.5t-53.5 151.5v308h159v-274q0 -44 24 -71.5t62 -27.5q49 0 76.5 34.5t27.5 105.5v233h160v-502q-6 -7 -16.5 -18t-14 -15.5t-10.5 -12.5t-9 -12
l-5 -8q-3 -6 -4 -10.5t-1 -9.5q0 -24 28 -24q17 0 50 10z" />
    <glyph glyph-name="Wcircumflex" unicode="&#x174;" horiz-adv-x="973" 
d="M446 729h-154l115 155h159l116 -155h-155l-40 56zM967 670l-191 -670h-177l-112 414l-113 -414h-176l-191 670h169l117 -422l115 422h157l115 -422l117 422h170z" />
    <glyph glyph-name="wcircumflex" unicode="&#x175;" horiz-adv-x="795" 
d="M358 561h-154l115 155h159l116 -155h-155l-40 56zM788 502l-161 -503h-139l-90 272l-91 -272h-139l-161 503h157l82 -270l95 270h113l95 -271l82 271h157z" />
    <glyph glyph-name="Ycircumflex" unicode="&#x176;" horiz-adv-x="706" 
d="M312 729h-154l115 155h159l116 -155h-155l-40 56zM434 210v-210h-168v208l-259 462h180l165 -294l163 294h184z" />
    <glyph glyph-name="ycircumflex" unicode="&#x177;" horiz-adv-x="604" 
d="M266 561h-154l115 155h159l116 -155h-155l-40 56zM597 503l-320 -743h-173l111 257l-208 486h172l119 -294l127 294h172z" />
    <glyph glyph-name="Ydieresis" unicode="&#x178;" horiz-adv-x="706" 
d="M239 724q-39 0 -64 24.5t-25 62.5q0 36 25.5 62t63.5 26t64 -26t26 -62q0 -38 -25.5 -62.5t-64.5 -24.5zM467 724q-39 0 -64 24.5t-25 62.5q0 36 25.5 62t63.5 26t64 -26t26 -62q0 -38 -25.5 -62.5t-64.5 -24.5zM434 210v-210h-168v208l-259 462h180l165 -294l163 294
h184z" />
    <glyph glyph-name="Zacute" unicode="&#x179;" horiz-adv-x="635" 
d="M393 735h-142l71 152h190zM597 139v-139h-556v106l338 425h-328v139h538v-126l-313 -405h321z" />
    <glyph glyph-name="zacute" unicode="&#x17a;" horiz-adv-x="538" 
d="M345 567h-142l71 152h190zM501 127v-127h-464v103l252 272h-246v127h449v-105l-252 -270h261z" />
    <glyph glyph-name="Zdotaccent" unicode="&#x17b;" horiz-adv-x="635" 
d="M320 732q-39 0 -64 25t-25 63q0 36 25.5 61.5t63.5 25.5t64 -25.5t26 -61.5q0 -38 -25.5 -63t-64.5 -25zM597 139v-139h-556v106l338 425h-328v139h538v-126l-313 -405h321z" />
    <glyph glyph-name="zdotaccent" unicode="&#x17c;" horiz-adv-x="538" 
d="M272 564q-39 0 -64 25t-25 63q0 36 25.5 61.5t63.5 25.5t64 -25.5t26 -61.5q0 -38 -25.5 -63t-64.5 -25zM501 127v-127h-464v103l252 272h-246v127h449v-105l-252 -270h261z" />
    <glyph glyph-name="Zcaron" unicode="&#x17d;" horiz-adv-x="635" 
d="M242 729l-115 155h154l41 -56l40 56h155l-116 -155h-159zM597 139v-139h-556v106l338 425h-328v139h538v-126l-313 -405h321z" />
    <glyph glyph-name="zcaron" unicode="&#x17e;" horiz-adv-x="538" 
d="M193 561l-115 155h154l41 -56l40 56h155l-116 -155h-159zM501 127v-127h-464v103l252 272h-246v127h449v-105l-252 -270h261z" />
    <glyph glyph-name="florin" unicode="&#x192;" horiz-adv-x="588" 
d="M452 547q-65 0 -79 -70l-15 -85h137v-127h-161l-45 -250q-15 -83 -70 -131.5t-136 -48.5q-51 0 -110 32l47 121q33 -11 56 -11q21 0 36.5 12.5t19.5 31.5l44 244h-96v127h119l16 91q17 92 80.5 146.5t154.5 54.5q70 0 125 -34l-50 -124q-35 21 -73 21z" />
    <glyph glyph-name="AEacute" unicode="&#x1fc;" horiz-adv-x="1046" 
d="M737 735h-142l71 152h190zM1007 142v-142h-521v109h-229l-65 -109h-192l429 670h575v-142h-354v-126h326v-134h-326v-126h357zM486 251v241l-144 -241h144z" />
    <glyph glyph-name="aeacute" unicode="&#x1fd;" horiz-adv-x="896" 
d="M515 567h-142l71 152h190zM871 204h-367q24 -91 112 -91q70 0 100 58l140 -29q-20 -70 -87 -113.5t-155 -43.5q-110 0 -187 71q-75 -71 -201 -71q-97 0 -150 44t-53 117t54.5 112.5t155.5 39.5h127v23q0 33 -21.5 53t-56.5 20q-33 0 -54 -17t-25 -48l-148 30
q11 70 71.5 114t156.5 44q105 0 167 -53q70 53 161 53q112 0 186 -74.5t74 -198.5v-40zM504 298h210q-9 45 -36 68t-64 23q-40 0 -70.5 -23.5t-39.5 -67.5zM360 202h-110q-69 0 -69 -47q0 -24 19 -38.5t51 -14.5q42 0 75.5 25t33.5 60v15z" />
    <glyph glyph-name="Scommaaccent" unicode="&#x218;" horiz-adv-x="646" 
d="M321 685q110 0 184 -51.5t93 -142.5l-162 -33q-9 45 -42 69.5t-75 24.5q-40 0 -65 -19.5t-25 -48.5q0 -44 54 -56l139 -31q184 -41 184 -195q0 -103 -79 -160t-197 -57q-117 0 -198.5 53.5t-94.5 149.5l170 33q24 -99 132 -99q46 0 72.5 19t26.5 50q0 24 -13.5 38
t-48.5 21l-140 30q-180 41 -180 194q0 97 73 154t192 57zM199 -202l51 157h162l-99 -157h-114z" />
    <glyph glyph-name="scommaaccent" unicode="&#x219;" horiz-adv-x="515" 
d="M24 131l156 32q10 -59 89 -59q30 0 47.5 11.5t17.5 28.5q0 28 -50 37l-102 20q-146 27 -146 146q0 77 60 123.5t156 46.5q92 0 152.5 -39t75.5 -105l-146 -29q-4 25 -26.5 42t-57.5 17q-30 0 -43.5 -11.5t-13.5 -27.5q0 -27 38 -35l118 -24q69 -15 104 -54.5t35 -96.5
q0 -81 -63 -125t-165 -44q-95 0 -159.5 36.5t-76.5 109.5zM138 -202l51 157h162l-99 -157h-114z" />
    <glyph glyph-name="uni021A" unicode="&#x21a;" horiz-adv-x="638" 
d="M618 670v-144h-217v-526h-164v526h-217v144h598zM243 -45h162l-99 -157h-114z" />
    <glyph glyph-name="uni021B" unicode="&#x21b;" horiz-adv-x="433" 
d="M293 -15q-95 0 -147.5 51t-52.5 149v190h-91v127h91v168h160v-168h148v-127h-148v-174q0 -73 67 -73q38 0 73 20l37 -126q-69 -37 -137 -37zM184 -44h162l-99 -157h-114z" />
    <glyph glyph-name="circumflex" unicode="&#x2c6;" horiz-adv-x="600" 
d="M341 561l-40 56l-41 -56h-154l115 155h159l116 -155h-155z" />
    <glyph glyph-name="caron" unicode="&#x2c7;" horiz-adv-x="600" 
d="M496 716l-116 -155h-159l-115 155h154l41 -56l40 56h155z" />
    <glyph glyph-name="breve" unicode="&#x2d8;" horiz-adv-x="600" 
d="M300 549q-81 0 -129.5 43t-48.5 115h126q0 -22 15 -36.5t37 -14.5q23 0 37.5 14.5t14.5 36.5h126q0 -72 -48.5 -115t-129.5 -43z" />
    <glyph glyph-name="dotaccent" unicode="&#x2d9;" horiz-adv-x="600" 
d="M300 739q38 0 64 -25.5t26 -61.5q0 -38 -25.5 -63t-64.5 -25t-64 25t-25 63q0 36 25.5 61.5t63.5 25.5z" />
    <glyph glyph-name="ring" unicode="&#x2da;" horiz-adv-x="600" 
d="M426 665q0 -51 -36.5 -86.5t-89.5 -35.5t-89.5 35.5t-36.5 86.5q0 52 36.5 87.5t89.5 35.5t89.5 -35.5t36.5 -87.5zM341 665q0 17 -12 28.5t-29 11.5t-29 -11.5t-12 -28.5q0 -16 12 -27.5t29 -11.5t29 11.5t12 27.5z" />
    <glyph glyph-name="ogonek" unicode="&#x2db;" horiz-adv-x="600" 
d="M229 3l100 -3q-6 -7 -16.5 -18t-14 -15.5t-10.5 -12.5t-9 -11l-5 -9q-3 -6 -4 -10.5t-1 -9.5q0 -24 28 -24q17 0 50 10l6 -91q-46 -22 -93 -22q-45 0 -73.5 24.5t-28.5 68.5q0 66 71 123z" />
    <glyph glyph-name="tilde" unicode="&#x2dc;" horiz-adv-x="600" 
d="M223 579h-97q0 76 34 114t81 38q35 0 69 -18.5t52 -18.5q26 0 31 36h97q0 -78 -33.5 -116t-82.5 -38q-35 0 -68.5 18t-51.5 18q-26 0 -31 -33z" />
    <glyph glyph-name="hungarumlaut" unicode="&#x2dd;" horiz-adv-x="600" 
d="M214 567h-137l74 152h180zM414 567h-136l74 152h183z" />
    <glyph glyph-name="uni0326" unicode="&#x326;" horiz-adv-x="0" 
d="M186 -202l51 157h162l-99 -157h-114z" />
    <glyph glyph-name="Wgrave" unicode="&#x1e80;" horiz-adv-x="973" 
d="M418 735l-119 152h190l71 -152h-142zM967 670l-191 -670h-177l-112 414l-113 -414h-176l-191 670h169l117 -422l115 422h157l115 -422l117 422h170z" />
    <glyph glyph-name="wgrave" unicode="&#x1e81;" horiz-adv-x="795" 
d="M329 567l-119 152h190l71 -152h-142zM788 502l-161 -503h-139l-90 272l-91 -272h-139l-161 503h157l82 -270l95 270h113l95 -271l82 271h157z" />
    <glyph glyph-name="Wacute" unicode="&#x1e82;" horiz-adv-x="973" 
d="M559 735h-142l71 152h190zM967 670l-191 -670h-177l-112 414l-113 -414h-176l-191 670h169l117 -422l115 422h157l115 -422l117 422h170z" />
    <glyph glyph-name="wacute" unicode="&#x1e83;" horiz-adv-x="795" 
d="M470 567h-142l71 152h190zM788 502l-161 -503h-139l-90 272l-91 -272h-139l-161 503h157l82 -270l95 270h113l95 -271l82 271h157z" />
    <glyph glyph-name="Wdieresis" unicode="&#x1e84;" horiz-adv-x="973" 
d="M373 724q-39 0 -64 24.5t-25 62.5q0 36 25.5 62t63.5 26t64 -26t26 -62q0 -38 -25.5 -62.5t-64.5 -24.5zM601 724q-39 0 -64 24.5t-25 62.5q0 36 25.5 62t63.5 26t64 -26t26 -62q0 -38 -25.5 -62.5t-64.5 -24.5zM967 670l-191 -670h-177l-112 414l-113 -414h-176
l-191 670h169l117 -422l115 422h157l115 -422l117 422h170z" />
    <glyph glyph-name="wdieresis" unicode="&#x1e85;" horiz-adv-x="795" 
d="M284 556q-39 0 -64 24.5t-25 62.5q0 36 25.5 62t63.5 26t64 -26t26 -62q0 -38 -25.5 -62.5t-64.5 -24.5zM512 556q-39 0 -64 24.5t-25 62.5q0 36 25.5 62t63.5 26t64 -26t26 -62q0 -38 -25.5 -62.5t-64.5 -24.5zM788 502l-161 -503h-139l-90 272l-91 -272h-139l-161 503
h157l82 -270l95 270h113l95 -271l82 271h157z" />
    <glyph glyph-name="Ygrave" unicode="&#x1ef2;" horiz-adv-x="706" 
d="M284 735l-119 152h190l71 -152h-142zM434 210v-210h-168v208l-259 462h180l165 -294l163 294h184z" />
    <glyph glyph-name="ygrave" unicode="&#x1ef3;" horiz-adv-x="604" 
d="M238 567l-119 152h190l71 -152h-142zM597 503l-320 -743h-173l111 257l-208 486h172l119 -294l127 294h172z" />
    <glyph glyph-name="endash" unicode="&#x2013;" horiz-adv-x="620" 
d="M560 201h-500v123h500v-123z" />
    <glyph glyph-name="emdash" unicode="&#x2014;" horiz-adv-x="1040" 
d="M980 201h-920v123h920v-123z" />
    <glyph glyph-name="quoteleft" unicode="&#x2018;" horiz-adv-x="299" 
d="M147 670h121l-59 -288h-177v4z" />
    <glyph glyph-name="quoteright" unicode="&#x2019;" horiz-adv-x="299" 
d="M153 382h-121l59 288h177v-4z" />
    <glyph glyph-name="quotesinglbase" unicode="&#x201a;" horiz-adv-x="299" 
d="M153 -132h-121l59 288h177v-4z" />
    <glyph glyph-name="quotedblleft" unicode="&#x201c;" horiz-adv-x="513" 
d="M147 670h121l-59 -288h-177v4zM360 670h121l-59 -288h-177v4z" />
    <glyph glyph-name="quotedblright" unicode="&#x201d;" horiz-adv-x="513" 
d="M153 382h-121l59 288h177v-4zM366 382h-121l59 288h177v-4z" />
    <glyph glyph-name="quotedblbase" unicode="&#x201e;" horiz-adv-x="513" 
d="M153 -132h-121l59 288h177v-4zM366 -132h-121l59 288h177v-4z" />
    <glyph glyph-name="dagger" unicode="&#x2020;" horiz-adv-x="400" 
d="M362 650v-93h-112v-248h-100v248h-112v93h112v90h100v-90h112z" />
    <glyph glyph-name="daggerdbl" unicode="&#x2021;" horiz-adv-x="400" 
d="M250 557v-65h112v-93h-112v-90h-100v90h-112v93h112v65h-112v93h112v90h100v-90h112v-93h-112z" />
    <glyph glyph-name="bullet" unicode="&#x2022;" horiz-adv-x="415" 
d="M207 433q75 0 125.5 -51.5t50.5 -121.5q0 -73 -50 -122t-126 -49t-125.5 49t-49.5 122q0 71 50 122t125 51z" />
    <glyph glyph-name="ellipsis" unicode="&#x2026;" horiz-adv-x="800" 
d="M123 175q39 0 65.5 -26.5t26.5 -63.5q0 -38 -26 -64t-66 -26q-39 0 -65 25.5t-26 64.5q0 37 26 63.5t65 26.5zM400 175q39 0 65 -26.5t26 -63.5q0 -39 -25.5 -64.5t-65.5 -25.5t-66 25.5t-26 64.5q0 37 26 63.5t66 26.5zM676 175q40 0 66 -26.5t26 -63.5q0 -39 -26 -64.5
t-66 -25.5t-65.5 25.5t-25.5 64.5q0 37 26 63.5t65 26.5z" />
    <glyph glyph-name="perthousand" unicode="&#x2030;" horiz-adv-x="1271" 
d="M214 685q72 0 122.5 -46.5t50.5 -121.5q0 -74 -50.5 -120.5t-122.5 -46.5q-73 0 -123.5 46.5t-50.5 120.5q0 75 50.5 121.5t123.5 46.5zM143 0l484 670h94l-485 -670h-93zM214 586q-27 0 -46.5 -18.5t-19.5 -49.5q0 -32 19.5 -50.5t46.5 -18.5q26 0 45.5 19t19.5 50
t-19.5 49.5t-45.5 18.5zM652 320q72 0 122.5 -46.5t50.5 -121.5q0 -74 -50.5 -120.5t-122.5 -46.5q-73 0 -123.5 46.5t-50.5 120.5q0 75 50.5 121.5t123.5 46.5zM1059 320q72 0 122 -46.5t50 -121.5q0 -74 -50 -120.5t-122 -46.5q-73 0 -123.5 46.5t-50.5 120.5
q0 75 50.5 121.5t123.5 46.5zM652 221q-27 0 -46.5 -18.5t-19.5 -49.5q0 -32 19.5 -50.5t46.5 -18.5q26 0 45.5 19t19.5 50t-19.5 49.5t-45.5 18.5zM1059 221q-27 0 -47 -18.5t-20 -49.5t20 -50t47 -19q26 0 45.5 19t19.5 50t-19.5 49.5t-45.5 18.5z" />
    <glyph glyph-name="guilsinglleft" unicode="&#x2039;" horiz-adv-x="305" 
d="M25 262l105 178h150l-105 -178l105 -178h-150z" />
    <glyph glyph-name="guilsinglright" unicode="&#x203a;" horiz-adv-x="305" 
d="M25 84l105 178l-105 178h150l105 -178l-105 -178h-150z" />
    <glyph glyph-name="fraction" unicode="&#x2044;" horiz-adv-x="245" 
d="M-173 0l484 670h94l-485 -670h-93z" />
    <glyph glyph-name="Euro" unicode="&#x20ac;" horiz-adv-x="761" 
d="M437 130q97 0 129 137l160 -32q-22 -114 -99.5 -182t-189.5 -68q-106 0 -181.5 62t-103.5 170h-97v96h83v22v22h-83v95h97q28 108 103.5 170.5t181.5 62.5q112 0 188.5 -67.5t100.5 -180.5l-163 -31q-13 68 -46.5 101.5t-79.5 33.5q-78 0 -115 -89h178l-21 -95h-176
l-1 -22q0 -15 1 -22h168l-21 -96h-128q36 -87 115 -87z" />
    <glyph glyph-name="uni2116" unicode="&#x2116;" horiz-adv-x="1198" 
d="M954 331q-76 0 -129.5 49t-53.5 125q0 77 53.5 126t129.5 49q78 0 131.5 -49t53.5 -126t-53.5 -125.5t-131.5 -48.5zM534 670h164v-670h-136l-339 388v-388h-165v670h137l339 -400v400zM954 573q-27 0 -45.5 -19.5t-18.5 -48.5q0 -28 19 -47.5t45 -19.5q28 0 47.5 19
t19.5 48t-19 48.5t-48 19.5zM779 285h353v-120h-353v120z" />
    <glyph glyph-name="uni2117" unicode="&#x2117;" horiz-adv-x="756" 
d="M376 685q146 0 248 -100t102 -252q0 -150 -102 -249t-248 -99t-248.5 99t-102.5 249q0 152 102.5 252t248.5 100zM376 42q120 0 204 83t84 209t-84 210.5t-204 84.5t-204.5 -84t-84.5 -211q0 -126 84.5 -209t204.5 -83zM242 516h174q67 0 105 -35.5t38 -92.5
q0 -60 -40 -96t-107 -36h-76v-104h-94v364zM336 335h70q29 0 45.5 14.5t16.5 37.5q0 22 -16.5 35.5t-45.5 13.5h-70v-101z" />
    <glyph glyph-name="trademark" unicode="&#x2122;" horiz-adv-x="689" 
d="M292 596h-85v-203h-88v203h-84v74h257v-74zM643 393h-82v133l-56 -132h-44l-56 132v-133h-83v277h94l67 -150l67 150h93v-277z" />
    <glyph glyph-name="oneeighth" unicode="&#x215b;" horiz-adv-x="814" 
d="M95 531l-78 -46v111l115 74h72v-383h-109v244zM664 670l-484 -670h-94l485 670h93zM715 199q67 -26 67 -95q0 -49 -44 -81.5t-116 -32.5q-71 0 -115 32.5t-44 81.5q0 69 67 95q-52 26 -52 81q0 45 41.5 77t103.5 32q61 0 103 -32t42 -77q0 -57 -53 -81zM622 310
q-20 0 -33.5 -11t-13.5 -30q0 -16 13.5 -27.5t33.5 -11.5t34 11t14 28q0 19 -13.5 30t-34.5 11zM623 74q21 0 35 11.5t14 30.5q0 18 -14.5 30t-35.5 12q-22 0 -36 -11.5t-14 -30.5t14.5 -30.5t36.5 -11.5z" />
    <glyph glyph-name="threeeighths" unicode="&#x215c;" horiz-adv-x="866" 
d="M324 406q0 -54 -42.5 -89.5t-108.5 -35.5q-64 0 -106 34t-46 91l95 21q6 -57 58 -57q21 0 34 11t13 28t-13.5 26.5t-34.5 9.5h-42v76h36q22 0 36.5 9.5t14.5 25.5q0 17 -12.5 27t-33.5 10q-49 0 -51 -54l-98 21q6 53 46.5 86.5t101.5 33.5q65 0 106 -34t41 -86
q0 -49 -46 -74q52 -26 52 -80zM716 670l-484 -670h-94l484 670h94zM764 199q67 -26 67 -95q0 -49 -44 -81.5t-116 -32.5q-71 0 -115 32.5t-44 81.5q0 69 67 95q-52 26 -52 81q0 45 41.5 77t103.5 32q61 0 103 -32t42 -77q0 -57 -53 -81zM671 310q-20 0 -33.5 -11t-13.5 -30
q0 -16 13.5 -27.5t33.5 -11.5t34 11t14 28q0 19 -13.5 30t-34.5 11zM672 74q21 0 35 11.5t14 30.5q0 18 -14.5 30t-35.5 12q-22 0 -36 -11.5t-14 -30.5t14.5 -30.5t36.5 -11.5z" />
    <glyph glyph-name="fiveeighths" unicode="&#x215d;" horiz-adv-x="845" 
d="M331 414q0 -61 -42 -98.5t-110 -37.5q-65 0 -108 34.5t-49 85.5l102 18q4 -22 19 -34.5t35 -12.5q21 0 35 11t14 31t-15 30.5t-39 10.5h-137l10 218h264v-94h-171l-2 -38h61q60 0 96.5 -34t36.5 -90zM709 670l-484 -670h-94l484 670h94zM747 199q67 -26 67 -95
q0 -49 -44 -81.5t-116 -32.5q-71 0 -115 32.5t-44 81.5q0 69 67 95q-52 26 -52 81q0 45 41.5 77t103.5 32q61 0 103 -32t42 -77q0 -57 -53 -81zM654 310q-20 0 -33.5 -11t-13.5 -30q0 -16 13.5 -27.5t33.5 -11.5t34 11t14 28q0 19 -13.5 30t-34.5 11zM655 74q21 0 35 11.5
t14 30.5q0 18 -14.5 30t-35.5 12q-22 0 -36 -11.5t-14 -30.5t14.5 -30.5t36.5 -11.5z" />
    <glyph glyph-name="seveneighths" unicode="&#x215e;" horiz-adv-x="769" 
d="M50 287l133 289h-176v94h291v-83l-132 -300h-116zM633 670l-484 -670h-94l484 670h94zM671 199q67 -26 67 -95q0 -49 -44 -81.5t-116 -32.5q-71 0 -115 32.5t-44 81.5q0 69 67 95q-52 26 -52 81q0 45 41.5 77t103.5 32q61 0 103 -32t42 -77q0 -57 -53 -81zM578 310
q-20 0 -33.5 -11t-13.5 -30q0 -16 13.5 -27.5t33.5 -11.5t34 11t14 28q0 19 -13.5 30t-34.5 11zM579 74q21 0 35 11.5t14 30.5q0 18 -14.5 30t-35.5 12q-22 0 -36 -11.5t-14 -30.5t14.5 -30.5t36.5 -11.5z" />
    <glyph glyph-name="arrowleft" unicode="&#x2190;" horiz-adv-x="727" 
d="M687 250h-394l154 -155l-104 -104l-333 333l334 334l104 -105l-155 -155h394v-148z" />
    <glyph glyph-name="arrowup" unicode="&#x2191;" horiz-adv-x="747" 
d="M603 240l-155 154v-394h-148v394l-155 -155l-105 104l334 334l333 -333z" />
    <glyph glyph-name="arrowright" unicode="&#x2192;" horiz-adv-x="727" 
d="M717 324l-333 -333l-104 104l154 155h-394v148h394l-155 155l104 105z" />
    <glyph glyph-name="arrowdown" unicode="&#x2193;" horiz-adv-x="747" 
d="M707 326l-333 -333l-334 334l105 104l155 -155v394h148v-394l155 154z" />
    <glyph glyph-name="uni2196" unicode="&#x2196;" horiz-adv-x="748" 
d="M599 -9l-421 423v-236h-148v492h491l-1 -148h-234l422 -422z" />
    <glyph glyph-name="uni2197" unicode="&#x2197;" horiz-adv-x="747" 
d="M717 670v-492h-148v235l-421 -422l-109 109l422 422h-234l-1 148h491z" />
    <glyph glyph-name="uni2198" unicode="&#x2198;" horiz-adv-x="748" 
d="M718 492v-492h-491l1 148h234l-422 422l109 109l421 -422v235h148z" />
    <glyph glyph-name="uni2199" unicode="&#x2199;" horiz-adv-x="748" 
d="M520 148l1 -148h-491v492h148v-236l421 423l109 -109l-422 -422h234z" />
    <glyph glyph-name="minus" unicode="&#x2212;" horiz-adv-x="573" 
d="M523 238h-473v131h473v-131z" />
    <glyph glyph-name="approxequal" unicode="&#x2248;" horiz-adv-x="572" 
d="M522 460v-121q-44 -21 -106 -21q-54 0 -124 24t-121 24q-81 0 -121 -29v119q41 31 121 31q52 0 124.5 -24t122.5 -24q65 0 104 21zM522 302v-120q-46 -22 -106 -22q-54 0 -124 24.5t-121 24.5q-79 0 -121 -29v118q43 32 121 32q52 0 124.5 -24t122.5 -24q64 0 104 20z
" />
    <glyph glyph-name="notequal" unicode="&#x2260;" horiz-adv-x="573" 
d="M369 351l-39 -71h193v-127h-262l-42 -77h-123l42 77h-88v127h157l39 71h-196v127h265l40 74h123l-40 -74h85v-127h-154z" />
    <glyph glyph-name="lessequal" unicode="&#x2264;" horiz-adv-x="457" 
d="M419 216l-387 114v150l387 114v-143l-233 -46l233 -49v-140zM419 200v-130h-387v130h387z" />
    <glyph glyph-name="greaterequal" unicode="&#x2265;" horiz-adv-x="457" 
d="M273 405l-233 46v143l387 -114v-150l-387 -114v140zM427 70h-387v130h387v-130z" />
    <glyph glyph-name="K.ss03" horiz-adv-x="690" 
d="M693 0h-216l-219 252h-35v-252h-165v670h165v-266h24l228 266h198l-285 -336z" />
    <glyph glyph-name="Kcommaaccent.ss03" horiz-adv-x="690" 
d="M693 0h-216l-219 252h-35v-252h-165v670h165v-266h24l228 266h198l-285 -336zM260 -45h162l-99 -157h-114z" />
    <glyph glyph-name="Q.ss04" horiz-adv-x="784" 
d="M749 334q0 -156 -117 -260l110 -132l-124 -110l-137 163q-48 -10 -89 -10q-150 0 -253.5 101.5t-103.5 247.5q0 147 103.5 249t253.5 102t253.5 -102t103.5 -249zM200 334q0 -85 55 -141.5t137 -56.5t137 56.5t55 141.5q0 86 -55 143t-137 57t-137 -57t-55 -143z" />
    <glyph glyph-name="I.ss05" horiz-adv-x="281" 
d="M223 0h-165v670h165v-670z" />
    <glyph glyph-name="IJ.ss05" horiz-adv-x="889" 
d="M58 670h165v-670h-165v670zM833 670v-429q0 -113 -74.5 -184.5t-195.5 -71.5q-112 0 -182.5 61t-85.5 164l160 32q5 -52 33 -81t75 -29t76 30.5t29 78.5v429h165z" />
    <glyph glyph-name="Iacute.ss05" horiz-adv-x="281" 
d="M213 735h-142l71 152h190zM223 0h-165v670h165v-670z" />
    <glyph glyph-name="Icircumflex.ss05" horiz-adv-x="281" 
d="M100 729h-154l115 155h159l116 -155h-155l-40 56zM58 670h165v-670h-165v670z" />
    <glyph glyph-name="Idieresis.ss05" horiz-adv-x="281" 
d="M27 899q38 0 64 -26t26 -62q0 -38 -25.5 -62.5t-64.5 -24.5t-64 24.5t-25 62.5q0 36 25.5 62t63.5 26zM255 899q38 0 64 -26t26 -62q0 -38 -25.5 -62.5t-64.5 -24.5t-64 24.5t-25 62.5q0 36 25.5 62t63.5 26zM223 0h-165v670h165v-670z" />
    <glyph glyph-name="Idotaccent.ss05" horiz-adv-x="281" 
d="M140 907q38 0 64 -25.5t26 -61.5q0 -38 -25.5 -63t-64.5 -25t-64 25t-25 63q0 36 25.5 61.5t63.5 25.5zM223 0h-165v670h165v-670z" />
    <glyph glyph-name="Igrave.ss05" horiz-adv-x="281" 
d="M143 887l71 -152h-142l-119 152h190zM223 0h-165v670h165v-670z" />
    <glyph glyph-name="Imacron.ss05" horiz-adv-x="281" 
d="M307 738h-332v124h332v-124zM223 0h-165v670h165v-670z" />
    <glyph glyph-name="Iogonek.ss05" horiz-adv-x="281" 
d="M240 -100l6 -91q-46 -22 -93 -22q-45 0 -73.5 24.5t-28.5 68.5q0 64 67 120h-60v670h165v-670h-1q-6 -7 -16.5 -18t-14 -15.5t-10.5 -12.5t-9 -12l-5 -8q-3 -6 -4 -10.5t-1 -9.5q0 -24 28 -24q17 0 50 10z" />
    <glyph glyph-name="J.ss05" horiz-adv-x="608" 
d="M552 670v-429q0 -113 -74.5 -184.5t-195.5 -71.5q-112 0 -182.5 61t-85.5 164l160 32q5 -52 33 -81t75 -29t76 30.5t29 78.5v429h165z" />
    <glyph glyph-name="i.loclTRK" horiz-adv-x="297" 
d="M148 739q38 0 64 -25.5t26 -61.5q0 -38 -25.5 -63t-64.5 -25t-64 25t-25 63q0 36 25.5 61.5t63.5 25.5zM228 0h-159v502h159v-502z" />
    <glyph glyph-name="germandbls.case" horiz-adv-x="1276" 
d="M321 685q110 0 184 -51.5t93 -142.5l-162 -33q-9 45 -42 69.5t-75 24.5q-40 0 -65 -19.5t-25 -48.5q0 -44 54 -56l139 -31q184 -41 184 -195q0 -103 -79 -160t-197 -57q-117 0 -198.5 53.5t-94.5 149.5l170 33q24 -99 132 -99q46 0 72.5 19t26.5 50q0 24 -13.5 38
t-48.5 21l-140 30q-180 41 -180 194q0 97 73 154t192 57zM951 685q110 0 184 -51.5t93 -142.5l-162 -33q-9 45 -42 69.5t-75 24.5q-40 0 -65 -19.5t-25 -48.5q0 -44 54 -56l139 -31q184 -41 184 -195q0 -103 -79 -160t-197 -57q-117 0 -198.5 53.5t-94.5 149.5l170 33
q24 -99 132 -99q46 0 72.5 19t26.5 50q0 24 -13.5 38t-48.5 21l-140 30q-180 41 -180 194q0 97 73 154t192 57z" />
    <glyph glyph-name="a.ss01" horiz-adv-x="644" 
d="M586 502v-502h-160v43q-60 -58 -156 -58q-102 0 -173.5 74.5t-71.5 191.5q0 116 71.5 191t173.5 75q96 0 156 -58v43h160zM303 121q50 0 86.5 36.5t36.5 93.5q0 56 -36.5 93t-86.5 37q-53 0 -87 -36.5t-34 -93.5q0 -58 34 -94t87 -36z" />
    <glyph glyph-name="aacute.ss01" horiz-adv-x="644" 
d="M394 567h-142l71 152h190zM586 502v-502h-160v43q-60 -58 -156 -58q-102 0 -173.5 74.5t-71.5 191.5q0 116 71.5 191t173.5 75q96 0 156 -58v43h160zM303 121q50 0 86.5 36.5t36.5 93.5q0 56 -36.5 93t-86.5 37q-53 0 -87 -36.5t-34 -93.5q0 -58 34 -94t87 -36z" />
    <glyph glyph-name="abreve.ss01" horiz-adv-x="644" 
d="M321 550q-81 0 -129.5 43t-48.5 115h126q0 -22 15 -36.5t37 -14.5q23 0 37.5 14.5t14.5 36.5h126q0 -72 -48.5 -115t-129.5 -43zM586 502v-502h-160v43q-60 -58 -156 -58q-102 0 -173.5 74.5t-71.5 191.5q0 116 71.5 191t173.5 75q96 0 156 -58v43h160zM303 121
q50 0 86.5 36.5t36.5 93.5q0 56 -36.5 93t-86.5 37q-53 0 -87 -36.5t-34 -93.5q0 -58 34 -94t87 -36z" />
    <glyph glyph-name="acircumflex.ss01" horiz-adv-x="644" 
d="M281 561h-154l115 155h159l116 -155h-155l-40 56zM586 502v-502h-160v43q-60 -58 -156 -58q-102 0 -173.5 74.5t-71.5 191.5q0 116 71.5 191t173.5 75q96 0 156 -58v43h160zM303 121q50 0 86.5 36.5t36.5 93.5q0 56 -36.5 93t-86.5 37q-53 0 -87 -36.5t-34 -93.5
q0 -58 34 -94t87 -36z" />
    <glyph glyph-name="adieresis.ss01" horiz-adv-x="644" 
d="M207 556q-39 0 -64 24.5t-25 62.5q0 36 25.5 62t63.5 26t64 -26t26 -62q0 -38 -25.5 -62.5t-64.5 -24.5zM435 556q-39 0 -64 24.5t-25 62.5q0 36 25.5 62t63.5 26t64 -26t26 -62q0 -38 -25.5 -62.5t-64.5 -24.5zM586 502v-502h-160v43q-60 -58 -156 -58
q-102 0 -173.5 74.5t-71.5 191.5q0 116 71.5 191t173.5 75q96 0 156 -58v43h160zM303 121q50 0 86.5 36.5t36.5 93.5q0 56 -36.5 93t-86.5 37q-53 0 -87 -36.5t-34 -93.5q0 -58 34 -94t87 -36z" />
    <glyph glyph-name="agrave.ss01" horiz-adv-x="644" 
d="M252 567l-119 152h190l71 -152h-142zM586 502v-502h-160v43q-60 -58 -156 -58q-102 0 -173.5 74.5t-71.5 191.5q0 116 71.5 191t173.5 75q96 0 156 -58v43h160zM303 121q50 0 86.5 36.5t36.5 93.5q0 56 -36.5 93t-86.5 37q-53 0 -87 -36.5t-34 -93.5q0 -58 34 -94t87 -36
z" />
    <glyph glyph-name="amacron.ss01" horiz-adv-x="644" 
d="M487 570h-332v124h332v-124zM586 502v-502h-160v43q-60 -58 -156 -58q-102 0 -173.5 74.5t-71.5 191.5q0 116 71.5 191t173.5 75q96 0 156 -58v43h160zM303 121q50 0 86.5 36.5t36.5 93.5q0 56 -36.5 93t-86.5 37q-53 0 -87 -36.5t-34 -93.5q0 -58 34 -94t87 -36z" />
    <glyph glyph-name="aogonek.ss01" horiz-adv-x="644" 
d="M603 -100l6 -91q-46 -22 -93 -22q-45 0 -73.5 24.5t-28.5 68.5q0 64 67 120h-55v43q-60 -58 -156 -58q-102 0 -173.5 74.5t-71.5 191.5q0 116 71.5 191t173.5 75q96 0 156 -58v43h160v-502h-1q-6 -7 -16.5 -18t-14 -15.5t-10.5 -12.5t-9 -12l-5 -8q-3 -6 -4 -10.5
t-1 -9.5q0 -24 28 -24q17 0 50 10zM303 121q50 0 86.5 36.5t36.5 93.5q0 56 -36.5 93t-86.5 37q-53 0 -87 -36.5t-34 -93.5q0 -58 34 -94t87 -36z" />
    <glyph glyph-name="aring.ss01" horiz-adv-x="644" 
d="M321 543q-53 0 -89.5 35.5t-36.5 86.5q0 52 36.5 87.5t89.5 35.5t89.5 -35.5t36.5 -87.5q0 -51 -36.5 -86.5t-89.5 -35.5zM321 705q-17 0 -29 -11.5t-12 -28.5q0 -16 12 -27.5t29 -11.5t29 11.5t12 27.5q0 17 -12 28.5t-29 11.5zM586 502v-502h-160v43q-60 -58 -156 -58
q-102 0 -173.5 74.5t-71.5 191.5q0 116 71.5 191t173.5 75q96 0 156 -58v43h160zM303 121q50 0 86.5 36.5t36.5 93.5q0 56 -36.5 93t-86.5 37q-53 0 -87 -36.5t-34 -93.5q0 -58 34 -94t87 -36z" />
    <glyph glyph-name="atilde.ss01" horiz-adv-x="644" 
d="M275 612q-26 0 -31 -33h-97q0 76 34 114t81 38q35 0 69 -18.5t52 -18.5q26 0 31 36h97q0 -78 -33.5 -116t-82.5 -38q-35 0 -68.5 18t-51.5 18zM586 502v-502h-160v43q-60 -58 -156 -58q-102 0 -173.5 74.5t-71.5 191.5q0 116 71.5 191t173.5 75q96 0 156 -58v43h160z
M303 121q50 0 86.5 36.5t36.5 93.5q0 56 -36.5 93t-86.5 37q-53 0 -87 -36.5t-34 -93.5q0 -58 34 -94t87 -36z" />
    <glyph glyph-name="l.ss02" horiz-adv-x="276" 
d="M218 0h-160v770h160v-770z" />
    <glyph glyph-name="lacute.ss02" horiz-adv-x="276" 
d="M212 835h-142l71 152h190zM218 0h-160v770h160v-770z" />
    <glyph glyph-name="lcaron.ss02" horiz-adv-x="276" 
d="M218 0h-160v770h160v-770zM388 571h-115v199h150z" />
    <glyph glyph-name="lcommaaccent.ss02" horiz-adv-x="276" 
d="M218 0h-160v770h160v-770zM8 -202l51 157h162l-99 -157h-114z" />
    <glyph glyph-name="ldot.ss02" horiz-adv-x="437" 
d="M218 0h-160v770h160v-770zM341 447q39 0 65 -26t26 -62q0 -38 -25.5 -63t-65.5 -25q-39 0 -64 25t-25 63q0 36 25.5 62t63.5 26z" />
    <glyph glyph-name="lslash.ss02" horiz-adv-x="322" 
d="M299 356l-58 -32v-324h-159v238l-59 -32v150l59 32v382h159v-296l58 32v-150z" />
    <glyph glyph-name="k.ss03" horiz-adv-x="612" 
d="M615 0h-205l-164 181h-28v-181h-160v770h160v-439h22l159 171h193l-220 -239z" />
    <glyph glyph-name="kcommaaccent.ss03" horiz-adv-x="612" 
d="M615 0h-205l-164 181h-28v-181h-160v770h160v-439h22l159 171h193l-220 -239zM232 -45h162l-99 -157h-114z" />
    <glyph glyph-name="f_j" horiz-adv-x="684" 
d="M619 502v-591q0 -73 -43.5 -117t-116.5 -44q-53 0 -105 21l24 126q26 -8 40 -8q19 0 30.5 11t11.5 29v446h-214v-375h-159v375h-72v127h72v85q0 88 55.5 140.5t148.5 52.5q46 0 91 -17l-29 -126q-21 6 -40 6q-31 0 -49 -16.5t-18 -45.5v-79h373zM538 561q-40 0 -66 25.5
t-26 63.5t26 64.5t66 26.5t66.5 -27t26.5 -64q0 -38 -26.5 -63.5t-66.5 -25.5z" />
    <glyph glyph-name="f_t" horiz-adv-x="796" 
d="M757 148l37 -126q-69 -37 -137 -37q-95 0 -147.5 51t-52.5 149v190h-211v-375h-159v375h-72v127h72v85q0 88 55.5 140.5t148.5 52.5q46 0 91 -17l-29 -126q-21 6 -40 6q-31 0 -49 -16.5t-18 -45.5v-79h211v168h160v-168h148v-127h-148v-174q0 -73 66 -73q37 0 74 20z" />
    <glyph glyph-name="fl.ss02" horiz-adv-x="653" 
d="M311 643q-29 0 -47 -16.5t-18 -45.5v-79h138v-127h-138v-375h-159v375h-72v127h72v85q0 88 55.5 140.5t146.5 52.5q50 0 99 -20l-34 -124q-21 7 -43 7zM595 770v-770h-160v770h160z" />
    <glyph glyph-name="zero.tf" 
d="M305 685q125 0 202 -96.5t77 -253.5t-77 -253.5t-202 -96.5t-202 96.5t-77 253.5t77 253.5t202 96.5zM305 130q52 0 82.5 54.5t30.5 150.5t-30.5 150t-82.5 54t-82.5 -54t-30.5 -150t30.5 -150.5t82.5 -54.5z" />
    <glyph glyph-name="one.tf" 
d="M553 146v-146h-488v146h180v330l-173 -80v150l229 124h104v-524h148z" />
    <glyph glyph-name="two.tf" 
d="M554 144v-144h-486v108l232 217l45 43q12 13 28 42t16 57q0 36 -23 58t-60 22q-88 0 -95 -108l-153 29q4 100 72 158.5t176 58.5t174.5 -59t66.5 -158q0 -65 -32 -115t-108 -121l-96 -88h243z" />
    <glyph glyph-name="three.tf" 
d="M478 339q83 -42 83 -138q0 -95 -69.5 -155.5t-180.5 -60.5q-106 0 -177 57.5t-82 154.5l156 29q16 -104 104 -104q42 0 69.5 22.5t27.5 58.5q0 34 -24.5 54t-67.5 20h-77v122h70q42 0 66 20t24 53q0 35 -24.5 56t-64.5 21q-42 0 -69 -27t-31 -81l-151 29q12 99 80 157
t170 58q107 0 174 -59t67 -152q0 -92 -73 -135z" />
    <glyph glyph-name="four.tf" 
d="M582 123h-72v-123h-156v123h-322v148l274 399h204v-415h72v-132zM354 255v252l-165 -252h165z" />
    <glyph glyph-name="five.tf" 
d="M234 435h93q110 0 173 -58.5t63 -157.5q0 -104 -69.5 -169t-184.5 -65q-109 0 -182.5 60.5t-76.5 169.5l156 31q1 -61 31 -91t75 -30q43 0 70 25.5t27 66.5q0 37 -26.5 60t-70.5 23h-230l13 370h439v-143h-296z" />
    <glyph glyph-name="six.tf" 
d="M349 435q106 0 169.5 -61.5t63.5 -160.5q0 -100 -71 -164t-182 -64q-130 0 -207 89t-77 249q0 189 93 283q77 79 193 79q90 0 153 -42.5t84 -121.5l-155 -30q-17 57 -88 57q-47 0 -82 -38q-43 -48 -45 -136q59 61 151 61zM325 120q40 0 70.5 28t30.5 70t-30.5 69.5
t-70.5 27.5t-69 -28t-29 -71q0 -41 29.5 -68.5t68.5 -27.5z" />
    <glyph glyph-name="seven.tf" 
d="M562 670v-119l-260 -551h-178l255 526h-341v144h524z" />
    <glyph glyph-name="eight.tf" 
d="M448 343q59 -23 90.5 -64t31.5 -96q0 -88 -72.5 -143t-190.5 -55t-190.5 55t-72.5 143q0 114 121 160q-99 46 -99 154q0 83 67.5 135.5t173.5 52.5t173.5 -52.5t67.5 -135.5q0 -108 -100 -154zM306 561q-36 0 -61.5 -21t-25.5 -57t25 -56.5t62 -20.5t63.5 21t26.5 57
t-26.5 56.5t-63.5 20.5zM306 115q38 0 66 22t28 60q0 37 -28 58.5t-66 21.5t-64.5 -21.5t-26.5 -60.5q0 -37 26 -58.5t65 -21.5z" />
    <glyph glyph-name="nine.tf" 
d="M280 684q130 0 207 -89t77 -249q0 -190 -93 -283q-76 -79 -193 -79q-90 0 -153 42.5t-84 121.5l155 30q19 -57 88 -57q47 0 82 38q45 49 45 136q-58 -61 -151 -61q-106 0 -169.5 61.5t-63.5 160.5q0 100 71 164t182 64zM284 354q40 0 69 28t29 71q0 41 -29 68.5t-69 27.5
t-70 -28t-30 -70t30 -69.5t70 -27.5z" />
    <glyph glyph-name="zero.zero.tf" 
d="M305 685q125 0 202 -96.5t77 -253.5t-77 -253.5t-202 -96.5t-202 96.5t-77 253.5t77 253.5t202 96.5zM305 539q-52 0 -82.5 -54t-30.5 -150q0 -32 5 -67l177 237q-28 34 -69 34zM305 130q52 0 82.5 54.5t30.5 150.5q0 39 -4 66l-177 -238q28 -33 68 -33z" />
    <glyph glyph-name="zero.zero" horiz-adv-x="653" 
d="M332 685q133 0 214.5 -96.5t81.5 -253.5t-81.5 -253.5t-214.5 -96.5t-214 96.5t-81 253.5t81 253.5t214 96.5zM332 540q-59 0 -94 -55.5t-35 -149.5q0 -39 6 -72l190 254q-29 23 -67 23zM332 130q59 0 94.5 55.5t35.5 149.5q0 51 -11 93l-197 -263q32 -35 78 -35z" />
    <glyph glyph-name="zero.dnom" horiz-adv-x="409" 
d="M205 390q79 0 126.5 -54.5t47.5 -145.5t-47.5 -145.5t-126.5 -54.5q-78 0 -126 55t-48 145t48 145t126 55zM205 85q59 0 59 105q0 50 -15.5 77t-43.5 27q-27 0 -43 -27t-16 -77q0 -51 15.5 -78t43.5 -27z" />
    <glyph glyph-name="one.dnom" horiz-adv-x="257" 
d="M204 0h-109v244l-78 -46v111l115 74h72v-383z" />
    <glyph glyph-name="two.dnom" horiz-adv-x="357" 
d="M193 93h128v-93h-294v69l141 124q20 17 28.5 25.5t15 20.5t6.5 24q0 17 -11.5 27.5t-30.5 10.5q-48 0 -49 -62l-97 21q0 60 40 96.5t106 36.5t106.5 -34.5t40.5 -95.5q0 -38 -20.5 -67t-62.5 -64z" />
    <glyph glyph-name="three.dnom" horiz-adv-x="351" 
d="M272 195q52 -26 52 -80t-42.5 -89.5t-108.5 -35.5q-64 0 -106 34t-46 91l95 21q6 -57 58 -57q21 0 34 11t13 28t-13.5 26.5t-34.5 9.5h-42v76h36q22 0 36.5 9.5t14.5 25.5q0 17 -12.5 27t-33.5 10q-49 0 -51 -54l-98 21q6 53 46.5 86.5t101.5 33.5q65 0 106 -34t41 -86
q0 -49 -46 -74z" />
    <glyph glyph-name="four.dnom" horiz-adv-x="386" 
d="M363 64h-48v-64h-101v64h-196v98l170 221h127v-230h48v-89zM214 153v121l-92 -121h92z" />
    <glyph glyph-name="five.dnom" horiz-adv-x="352" 
d="M137 250h61q60 0 96.5 -34t36.5 -90q0 -61 -42 -98.5t-110 -37.5q-65 0 -108 34.5t-49 85.5l102 18q4 -22 19 -34.5t35 -12.5q21 0 35 11t14 31t-15 30.5t-39 10.5h-137l10 218h264v-94h-171z" />
    <glyph glyph-name="six.dnom" horiz-adv-x="359" 
d="M206 249q59 0 96 -35.5t37 -92.5q0 -58 -42.5 -94.5t-106.5 -36.5q-79 0 -124.5 50t-45.5 140q0 108 56 164q45 45 114 45q59 0 97 -28.5t48 -81.5l-104 -16q-6 38 -44 38q-22 0 -39 -19q-17 -20 -20 -54q34 21 78 21zM186 74q22 0 37 14.5t15 36.5t-15 36.5t-37 14.5
t-37 -14.5t-15 -36.5t14.5 -36.5t37.5 -14.5z" />
    <glyph glyph-name="seven.dnom" horiz-adv-x="307" 
d="M298 383v-83l-132 -300h-116l133 289h-176v94h291z" />
    <glyph glyph-name="eight.dnom" horiz-adv-x="376" 
d="M281 199q67 -26 67 -95q0 -49 -44 -81.5t-116 -32.5q-71 0 -115 32.5t-44 81.5q0 69 67 95q-52 26 -52 81q0 45 41.5 77t103.5 32q61 0 103 -32t42 -77q0 -57 -53 -81zM188 310q-20 0 -33.5 -11t-13.5 -30q0 -16 13.5 -27.5t33.5 -11.5t34 11t14 28q0 19 -13.5 30
t-34.5 11zM189 74q21 0 35 11.5t14 30.5q0 18 -14.5 30t-35.5 12q-22 0 -36 -11.5t-14 -30.5t14.5 -30.5t36.5 -11.5z" />
    <glyph glyph-name="nine.dnom" horiz-adv-x="359" 
d="M169 389q79 0 124.5 -50t45.5 -140q0 -108 -56 -165q-44 -44 -115 -44q-58 0 -96.5 28.5t-47.5 80.5l103 16q6 -37 45 -37q23 0 39 19t21 55q-34 -23 -79 -23q-59 0 -96 36t-37 92q0 59 42 95.5t107 36.5zM173 203q22 0 37 14.5t15 36.5t-15 36t-37 14q-23 0 -38 -14
t-15 -36t15 -36.5t38 -14.5z" />
    <glyph glyph-name="zero.numr" horiz-adv-x="409" 
d="M205 680q79 0 126.5 -54.5t47.5 -145.5t-47.5 -145.5t-126.5 -54.5q-78 0 -126 55t-48 145t48 145t126 55zM205 375q59 0 59 105q0 50 -15.5 77t-43.5 27q-27 0 -43 -27t-16 -77q0 -51 15.5 -78t43.5 -27z" />
    <glyph glyph-name="one.numr" horiz-adv-x="257" 
d="M204 287h-109v244l-78 -46v111l115 74h72v-383z" />
    <glyph glyph-name="two.numr" horiz-adv-x="357" 
d="M193 380h128v-93h-294v69l141 124q20 17 28.5 25.5t15 20.5t6.5 24q0 17 -11.5 27.5t-30.5 10.5q-48 0 -49 -62l-97 21q0 60 40 96.5t106 36.5t106.5 -34.5t40.5 -95.5q0 -38 -20.5 -67t-62.5 -64z" />
    <glyph glyph-name="three.numr" horiz-adv-x="351" 
d="M272 486q52 -26 52 -80t-42.5 -89.5t-108.5 -35.5q-64 0 -106 34t-46 91l95 21q6 -57 58 -57q21 0 34 11t13 28t-13.5 26.5t-34.5 9.5h-42v76h36q22 0 36.5 9.5t14.5 25.5q0 17 -12.5 27t-33.5 10q-49 0 -51 -54l-98 21q6 53 46.5 86.5t101.5 33.5q65 0 106 -34t41 -86
q0 -49 -46 -74z" />
    <glyph glyph-name="four.numr" horiz-adv-x="386" 
d="M363 351h-48v-64h-101v64h-196v98l170 221h127v-230h48v-89zM214 440v121l-92 -121h92z" />
    <glyph glyph-name="five.numr" horiz-adv-x="352" 
d="M137 538h61q60 0 96.5 -34t36.5 -90q0 -61 -42 -98.5t-110 -37.5q-65 0 -108 34.5t-49 85.5l102 18q4 -22 19 -34.5t35 -12.5q21 0 35 11t14 31t-15 30.5t-39 10.5h-137l10 218h264v-94h-171z" />
    <glyph glyph-name="six.numr" horiz-adv-x="359" 
d="M206 540q59 0 96 -35.5t37 -92.5q0 -58 -42.5 -94.5t-106.5 -36.5q-79 0 -124.5 50t-45.5 140q0 108 56 164q45 45 114 45q59 0 97 -28.5t48 -81.5l-104 -16q-6 38 -44 38q-22 0 -39 -19q-17 -20 -20 -54q34 21 78 21zM186 365q22 0 37 14.5t15 36.5t-15 36.5t-37 14.5
t-37 -14.5t-15 -36.5t14.5 -36.5t37.5 -14.5z" />
    <glyph glyph-name="seven.numr" horiz-adv-x="307" 
d="M298 670v-83l-132 -300h-116l133 289h-176v94h291z" />
    <glyph glyph-name="eight.numr" horiz-adv-x="376" 
d="M281 490q67 -26 67 -95q0 -49 -44 -81.5t-116 -32.5q-71 0 -115 32.5t-44 81.5q0 69 67 95q-52 26 -52 81q0 45 41.5 77t103.5 32q61 0 103 -32t42 -77q0 -57 -53 -81zM188 601q-20 0 -33.5 -11t-13.5 -30q0 -16 13.5 -27.5t33.5 -11.5t34 11t14 28q0 19 -13.5 30
t-34.5 11zM189 365q21 0 35 11.5t14 30.5q0 18 -14.5 30t-35.5 12q-22 0 -36 -11.5t-14 -30.5t14.5 -30.5t36.5 -11.5z" />
    <glyph glyph-name="nine.numr" horiz-adv-x="359" 
d="M169 680q79 0 124.5 -50t45.5 -140q0 -108 -56 -165q-44 -44 -115 -44q-58 0 -96.5 28.5t-47.5 80.5l103 16q6 -37 45 -37q23 0 39 19t21 55q-35 -23 -79 -23q-59 0 -96 36t-37 92q0 59 42 95.5t107 36.5zM173 494q22 0 37 14.5t15 36.5t-15 36t-37 14q-23 0 -38 -14
t-15 -36t15 -36.5t38 -14.5z" />
    <glyph glyph-name="backslash.case" horiz-adv-x="435" 
d="M411 0h-150l-237 670h150z" />
    <glyph glyph-name="periodcentered.case" horiz-adv-x="246" 
d="M123 416q39 0 65.5 -26.5t26.5 -63.5q0 -38 -26 -64t-66 -26q-39 0 -65 26t-26 64q0 37 26 63.5t65 26.5z" />
    <glyph glyph-name="bullet.case" horiz-adv-x="415" 
d="M207 498q75 0 125.5 -51.5t50.5 -121.5q0 -73 -50 -122t-126 -49t-125.5 49t-49.5 122q0 71 50 122t125 51z" />
    <glyph glyph-name="colon.case" horiz-adv-x="246" 
d="M123 563q39 0 65.5 -27t26.5 -64q0 -38 -26 -63.5t-66 -25.5q-39 0 -65 25.5t-26 63.5q0 37 26 64t65 27zM123 255q39 0 65.5 -26.5t26.5 -63.5q0 -38 -26 -64t-66 -26q-39 0 -65 25.5t-26 64.5q0 37 26 63.5t65 26.5z" />
    <glyph glyph-name="exclamdown.case" horiz-adv-x="297" 
d="M151 498q-40 0 -66 26t-26 63q0 38 26 63t66 25t65.5 -25t25.5 -63q0 -37 -26 -63t-65 -26zM60 31l10 410h158l10 -410v-31h-178v31z" />
    <glyph glyph-name="questiondown.case" horiz-adv-x="543" 
d="M278 502q-39 0 -65.5 26.5t-26.5 62.5q0 38 26 63t66 25t65.5 -25t25.5 -63q0 -36 -26 -62.5t-65 -26.5zM360 224l156 -32q-11 -86 -80 -144t-179 -58q-105 0 -170 60.5t-65 154.5q0 74 47.5 123.5t130.5 65.5v50h152v-161h-80q-41 0 -66.5 -20t-25.5 -53q0 -36 23 -58.5
t60 -22.5q39 0 64.5 25.5t32.5 69.5z" />
    <glyph glyph-name="semicolon.case" horiz-adv-x="280" 
d="M157 563q39 0 65 -27t26 -64q0 -38 -26 -63.5t-65 -25.5q-40 0 -66 25.5t-26 63.5q0 37 26 64t66 27zM124 -132h-121l59 288h177v-4z" />
    <glyph glyph-name="slash.case" horiz-adv-x="481" 
d="M182 0h-135l252 670h135z" />
    <glyph glyph-name="braceleft.case" horiz-adv-x="421" 
d="M263 511v-71q0 -79 -62 -107q62 -28 62 -107v-68q0 -29 26 -29h95v-129h-133q-62 0 -99.5 36t-37.5 95v74q0 24 -15 37t-45 22l-34 10v119l34 10q30 9 45 21t15 36v79q0 59 38 95t99 36h133v-129h-95q-26 0 -26 -30z" />
    <glyph glyph-name="braceright.case" horiz-adv-x="421" 
d="M401 393v-119l-34 -10q-30 -10 -45.5 -22.5t-15.5 -36.5v-74q0 -59 -37 -95t-99 -36h-133v129h94q27 0 27 29v68q0 79 61 107q-61 28 -61 107v71q0 13 -7.5 21.5t-19.5 8.5h-94v129h133q61 0 98.5 -36t37.5 -95v-79q0 -24 15.5 -36t45.5 -21z" />
    <glyph glyph-name="bracketleft.case" horiz-adv-x="410" 
d="M207 539v-408h166v-131h-315v670h315v-131h-166z" />
    <glyph glyph-name="bracketright.case" horiz-adv-x="410" 
d="M352 670v-670h-315v131h166v408h-166v131h315z" />
    <glyph glyph-name="parenleft.case" horiz-adv-x="350" 
d="M204 335q0 -75 27 -132.5t84 -124.5l-103 -95q-177 158 -177 352t177 352l100 -96q-55 -67 -81.5 -124t-26.5 -132z" />
    <glyph glyph-name="parenright.case" horiz-adv-x="350" 
d="M38 591l99 96q178 -157 178 -352t-178 -352l-102 95q57 67 84 124.5t27 132.5t-26.5 132t-81.5 124z" />
    <glyph glyph-name="emdash.case" horiz-adv-x="1040" 
d="M980 267h-920v123h920v-123z" />
    <glyph glyph-name="endash.case" horiz-adv-x="620" 
d="M560 267h-500v123h500v-123z" />
    <glyph glyph-name="hyphen.case" horiz-adv-x="451" 
d="M391 261h-331v135h331v-135z" />
    <glyph glyph-name="guillemotleft.case" horiz-adv-x="505" 
d="M25 322l105 178h150l-105 -178l105 -178h-150zM225 322l105 178h150l-105 -178l105 -178h-150z" />
    <glyph glyph-name="guillemotright.case" horiz-adv-x="505" 
d="M25 144l105 178l-105 178h150l105 -178l-105 -178h-150zM225 144l105 178l-105 178h150l105 -178l-105 -178h-150z" />
    <glyph glyph-name="guilsinglleft.case" horiz-adv-x="305" 
d="M25 322l105 178h150l-105 -178l105 -178h-150z" />
    <glyph glyph-name="guilsinglright.case" horiz-adv-x="305" 
d="M25 144l105 178l-105 178h150l105 -178l-105 -178h-150z" />
    <glyph glyph-name="cent.tf" 
d="M302 125q84 0 110 88l146 -32q-15 -72 -66.5 -122t-124.5 -67v-122h-133v123q-91 21 -148.5 90.5t-57.5 167.5t57.5 167.5t148.5 90.5v121h133v-120q72 -17 123 -65.5t68 -120.5l-150 -36q-10 44 -38 66.5t-68 22.5q-54 0 -87 -35.5t-33 -90.5q0 -56 33 -91t87 -35z" />
    <glyph glyph-name="dollar.tf" 
d="M565 211q0 -83 -54 -134.5t-139 -64.5v-112h-133v115q-83 18 -139.5 70t-64.5 128l156 30q7 -56 41.5 -81t81.5 -25q41 0 66.5 18t25.5 46q0 42 -57 55l-128 28q-171 37 -171 178q0 80 51.5 131.5t137.5 65.5v111h133v-114q80 -18 130 -69t57 -126l-152 -26q-3 55 -35 79
t-74 24q-37 0 -60.5 -18t-23.5 -45q0 -41 50 -52l128 -29q173 -39 173 -183z" />
    <glyph glyph-name="Euro.tf" 
d="M324 130q71 0 102 128l162 -30q-21 -109 -91.5 -176t-172.5 -67q-100 0 -169 61t-93 173h-48v96h37v20v20h-37v95h48q24 113 93 174t169 61q103 0 174 -68t90 -180l-161 -28q-24 132 -103 132q-72 0 -96 -91h150l-20 -95h-143v-20v-20h138l-20 -96h-105q25 -89 96 -89z
" />
    <glyph glyph-name="florin.tf" 
d="M483 547q-65 0 -79 -70l-15 -85h137v-127h-161l-45 -250q-15 -83 -70 -131.5t-136 -48.5q-51 0 -110 32l47 121q33 -11 56 -11q21 0 36.5 12.5t19.5 31.5l44 244h-96v127h119l16 91q17 92 80.5 146.5t154.5 54.5q70 0 125 -34l-50 -124q-34 21 -73 21z" />
    <glyph glyph-name="sterling.tf" 
d="M574 143v-143h-539v103l72 22v108h-72v137h72v91q0 101 64 162.5t170 61.5q101 0 162.5 -59t68.5 -160l-149 -26q-8 54 -28 75t-54 21q-33 0 -53 -20.5t-20 -54.5v-91h157v-137h-157v-90h306z" />
    <glyph glyph-name="yen.tf" 
d="M428 331h102v-103h-147v-43h147v-104h-147v-81h-164v81h-139v104h139v43h-139v103h95l-166 339h175l117 -278l116 278h183z" />
    <glyph glyph-name="approxequal.tf" 
d="M541 460v-121q-44 -21 -106 -21q-54 0 -124 24t-121 24q-81 0 -121 -29v119q41 31 121 31q52 0 124.5 -24t122.5 -24q65 0 104 21zM541 302v-120q-46 -22 -106 -22q-54 0 -124 24.5t-121 24.5q-79 0 -121 -29v118q43 32 121 32q52 0 124.5 -24t122.5 -24q64 0 104 20z
" />
    <glyph glyph-name="divide.tf" 
d="M302 561q35 0 59 -24t24 -57q0 -35 -23.5 -58t-59.5 -23t-59 23t-23 58q0 33 23.5 57t58.5 24zM542 238h-474v131h474v-131zM302 200q35 0 59 -24t24 -57q0 -35 -23.5 -58t-59.5 -23t-59 23t-23 58q0 33 23.5 57t58.5 24z" />
    <glyph glyph-name="equal.tf" 
d="M542 351h-474v127h474v-127zM542 153h-474v127h474v-127z" />
    <glyph glyph-name="greater.tf" 
d="M348 328l-229 65v154l398 -143v-155l-398 -141v152z" />
    <glyph glyph-name="greaterequal.tf" 
d="M348 405l-233 46v143l387 -114v-150l-387 -114v140zM503 70h-388v130h388v-130z" />
    <glyph glyph-name="less.tf" 
d="M491 108l-398 141v155l398 143v-154l-229 -65l229 -68v-152z" />
    <glyph glyph-name="lessequal.tf" 
d="M496 216l-387 114v150l387 114v-143l-233 -46l233 -49v-140zM496 200v-130h-387v130h387z" />
    <glyph glyph-name="minus.tf" 
d="M542 238h-474v131h474v-131z" />
    <glyph glyph-name="multiply.tf" 
d="M397 304l132 -132l-92 -93l-133 132l-132 -132l-93 93l132 132l-132 131l93 93l132 -132l133 132l92 -93z" />
    <glyph glyph-name="notequal.tf" 
d="M388 351l-39 -71h193v-127h-262l-42 -77h-124l42 77h-88v127h157l39 71h-196v127h265l40 74h124l-40 -74h85v-127h-154z" />
    <glyph glyph-name="plus.tf" 
d="M542 238h-172v-174h-130v174h-172v131h172v174h130v-174h172v-131z" />
    <glyph glyph-name="plusminus.tf" 
d="M542 465v-130h-172v-141h-130v141h-172v130h172v160h130v-160h172zM68 130h474v-130h-474v130z" />
    <glyph glyph-name="bar.case" horiz-adv-x="265" 
d="M207 -41h-149v752h149v-752z" />
    <glyph glyph-name="at.case" horiz-adv-x="936" 
d="M671 509v-278q0 -22 14.5 -34t35.5 -12q39 0 60 48.5t21 111.5q0 133 -94 216.5t-232 83.5q-147 0 -244.5 -94.5t-97.5 -238.5q0 -142 96.5 -235t239.5 -93q132 0 240 83l45 -71q-116 -94 -283 -94q-182 0 -303.5 115.5t-121.5 292.5q0 179 123 297t306 118
q173 0 293 -106.5t120 -269.5q0 -44 -10 -84.5t-31 -78t-60.5 -60t-92.5 -22.5q-89 0 -121 61q-48 -59 -136 -59q-85 0 -141.5 56t-56.5 149q0 94 57 150.5t141 56.5q74 0 122 -46v37h111zM464 210q39 0 67.5 28t28.5 74q0 45 -28.5 73t-67.5 28t-67 -27.5t-28 -73.5t28 -74
t67 -28z" />
    <glyph glyph-name="caron.alt" horiz-adv-x="600" 
d="M354 451h-115v199h150z" />
    </font>
</defs>
</svg>
